<?xml version="1.0" encoding="utf-8"?>
<!-- Generator: Adobe Illustrator 28.3.0, SVG Export Plug-In . SVG Version: 6.00 Build 0)  -->
<svg version="1.1" id="Layer_2_00000018201838691360586080000011838694921390459553_"
	 xmlns="http://www.w3.org/2000/svg" xmlns:xlink="http://www.w3.org/1999/xlink" x="0px" y="0px" viewBox="0 0 167.4 202.1"
	 style="enable-background:new 0 0 167.4 202.1;" xml:space="preserve">
<style type="text/css">
	.st0{fill:#FFFFFF;}
	.st1{fill:#244093;}
</style>
<rect x="0" class="st0" width="167.4" height="202.1"/>
<g id="Layer_1-2">
	<g>
		<g>
			<path class="st1" d="M7.7,197.7c-1.1,0-2.1-0.2-3.1-0.6c-0.9-0.4-1.7-0.9-2.4-1.6c-0.7-0.7-1.2-1.5-1.6-2.5
				c-0.4-1-0.6-2.2-0.6-3.5s0.2-2.5,0.6-3.5c0.4-1,0.9-1.8,1.6-2.5c0.7-0.7,1.5-1.2,2.4-1.5c0.9-0.4,1.9-0.5,3-0.5s2.1,0.2,3,0.5
				s1.7,0.9,2.4,1.5c0.7,0.7,1.2,1.5,1.6,2.5c0.4,1,0.6,2.2,0.6,3.5s-0.2,2.5-0.6,3.5c-0.4,1-0.9,1.9-1.6,2.5s-1.5,1.2-2.4,1.5
				C9.8,197.5,8.8,197.7,7.7,197.7 M7.7,184.3c-1.2,0-2.2,0.4-2.9,1.3c-0.7,0.9-1.1,2.2-1.1,3.9s0.3,3.1,1.1,4
				c0.7,0.9,1.7,1.4,2.9,1.4s2.2-0.5,2.9-1.4c0.7-0.9,1.1-2.2,1.1-4s-0.4-3.1-1-3.9C9.9,184.8,8.9,184.3,7.7,184.3"/>
			<path class="st1" d="M22.5,197.6c-1.4,0-2.5-0.3-3.2-0.9c-0.7-0.6-1.1-1.6-1.1-3.1v-11.9l0.6-0.1c0.3-0.1,0.7-0.1,1-0.1
				c0.7,0,1.2,0.1,1.6,0.4c0.3,0.2,0.5,0.7,0.5,1.4v2.1h3.4l0.1,0.2c0,0.1,0.1,0.2,0.1,0.3c0.1,0.2,0.1,0.5,0.1,0.8
				c0,0.5-0.1,0.9-0.3,1.1s-0.5,0.3-0.9,0.3h-2.5v5.2c0,0.5,0.2,0.9,0.5,1.1c0.3,0.2,0.8,0.3,1.3,0.3c0.3,0,0.5,0,0.8-0.1
				c0.1,0,0.2,0,0.2-0.1l0.3-0.1l0.1,0.2c0,0.1,0.1,0.1,0.1,0.2c0.1,0.2,0.1,0.4,0.1,0.7c0,0.5-0.2,1-0.6,1.4
				C24.4,197.4,23.6,197.6,22.5,197.6"/>
			<path class="st1" d="M151.4,197.7c-1.4,0-2.5-0.3-3.2-0.9c-0.7-0.6-1.1-1.6-1.1-3.1v-11.9l0.6-0.1c0.3-0.1,0.7-0.1,1.1-0.1
				c0.7,0,1.2,0.1,1.6,0.4c0.3,0.2,0.5,0.7,0.5,1.4v2.1h3.4l0.1,0.2c0,0.1,0.1,0.2,0.1,0.3c0.1,0.2,0.1,0.5,0.1,0.8
				c0,0.5-0.1,0.9-0.3,1.1c-0.2,0.2-0.5,0.3-0.9,0.3h-2.5v5.2c0,0.5,0.2,0.9,0.5,1.1c0.3,0.2,0.8,0.3,1.3,0.3c0.3,0,0.5,0,0.8-0.1
				c0.1,0,0.2,0,0.3-0.1l0.3-0.1l0.1,0.2c0,0.1,0.1,0.1,0.1,0.2c0.1,0.2,0.1,0.4,0.1,0.7c0,0.6-0.2,1-0.6,1.4
				C153.3,197.5,152.6,197.7,151.4,197.7"/>
			<path class="st1" d="M38.4,197.7c-0.3,0-0.7,0-1-0.1c-0.2,0-0.5-0.1-0.6-0.2c-0.2-0.1-0.3-0.3-0.4-0.5c-0.1-0.2-0.1-0.5-0.1-0.9
				v-5.6c0-0.8-0.2-1.3-0.6-1.6c-0.4-0.3-0.9-0.5-1.4-0.5c-0.4,0-0.7,0.1-1,0.1c-0.3,0.1-0.6,0.2-0.8,0.3l-0.1,0.1l0,0.1v8.6
				l-0.6,0.1c-0.4,0.1-0.7,0.1-1.1,0.1s-0.7,0-1-0.1c-0.2,0-0.5-0.1-0.6-0.2c-0.2-0.1-0.3-0.3-0.4-0.5c-0.1-0.2-0.1-0.5-0.1-0.9
				v-14.2l0.6-0.1c0.4-0.1,0.7-0.1,1-0.1s0.7,0,1,0.1c0.2,0,0.5,0.1,0.6,0.2c0.2,0.1,0.3,0.3,0.4,0.5c0.1,0.2,0.1,0.5,0.1,0.9v2.8
				l0.4-0.1c0.2-0.1,0.5-0.2,1-0.3c0.4-0.1,0.9-0.2,1.4-0.2c1.6,0,2.8,0.4,3.7,1.2c0.9,0.8,1.3,1.9,1.3,3.5v7.4l-0.6,0.1
				C39.1,197.6,38.8,197.7,38.4,197.7"/>
			<path class="st1" d="M113.3,197.7c-0.3,0-0.7,0-0.9-0.1c-0.2,0-0.5-0.1-0.6-0.2c-0.2-0.1-0.3-0.3-0.4-0.5
				c-0.1-0.2-0.1-0.5-0.1-0.9v-5.6c0-0.8-0.2-1.3-0.6-1.6c-0.4-0.3-0.9-0.5-1.4-0.5c-0.4,0-0.7,0.1-1,0.1c-0.3,0.1-0.6,0.2-0.8,0.3
				l-0.1,0.1l-0.1,0.1v8.6l-0.6,0.1c-0.4,0.1-0.7,0.1-1.1,0.1s-0.7,0-0.9-0.1c-0.2,0-0.5-0.1-0.6-0.2c-0.2-0.1-0.3-0.3-0.4-0.5
				c-0.1-0.2-0.1-0.5-0.1-0.9v-14.2l0.6-0.1c0.3-0.1,0.7-0.1,1.1-0.1s0.7,0,0.9,0.1c0.2,0,0.5,0.1,0.6,0.2c0.2,0.1,0.3,0.3,0.4,0.5
				c0.1,0.2,0.1,0.5,0.1,0.9v2.8l0.4-0.1c0.2-0.1,0.5-0.2,1-0.3c0.4-0.1,0.9-0.2,1.4-0.2c1.6,0,2.8,0.4,3.7,1.2
				c0.9,0.8,1.3,1.9,1.3,3.5v7.4l-0.6,0.1C114,197.7,113.6,197.7,113.3,197.7"/>
			<path class="st1" d="M48.2,197.7c-0.8,0-1.6-0.1-2.3-0.2c-0.7-0.1-1.3-0.4-1.8-0.7c-0.5-0.3-0.8-0.7-1.1-1.2
				c-0.3-0.5-0.4-1-0.4-1.7c0-1.1,0.3-1.9,0.9-2.4c0.6-0.6,1.7-0.9,3-1.1l3.5-0.4v-0.2c0-0.7-0.2-1.2-0.8-1.4
				c-0.5-0.2-1.1-0.3-2-0.3c-0.6,0-1.3,0.1-1.9,0.2c-0.5,0.1-0.9,0.2-1.3,0.4l-0.2,0.1l-0.2-0.2c-0.1-0.1-0.1-0.2-0.2-0.3
				c-0.1-0.3-0.2-0.6-0.2-0.8c0-0.4,0.1-0.7,0.3-0.9c0.2-0.2,0.5-0.4,0.9-0.6c0.4-0.2,1-0.3,1.6-0.4c0.7-0.1,1.3-0.1,1.8-0.1
				c0.9,0,1.7,0.1,2.4,0.3c0.7,0.2,1.3,0.4,1.8,0.8c0.5,0.3,0.9,0.8,1.1,1.3c0.3,0.5,0.4,1.2,0.4,1.9v5.5c0,0.4-0.1,0.7-0.3,0.9
				c-0.2,0.2-0.5,0.5-0.8,0.6C51.6,197.4,50.1,197.7,48.2,197.7 M48.2,192.5c-0.5,0-0.9,0.1-1.3,0.3c-0.4,0.2-0.6,0.6-0.6,1
				s0.2,0.8,0.5,1c0.3,0.2,0.8,0.4,1.5,0.4c0.3,0,0.6,0,1-0.1c0.1,0,0.4-0.1,0.6-0.2l0.1,0v-2.6L48.2,192.5L48.2,192.5z"/>
			<path class="st1" d="M122.9,197.7c-0.9,0-1.6-0.1-2.3-0.2c-0.7-0.1-1.3-0.4-1.8-0.7c-0.5-0.3-0.8-0.7-1.1-1.2
				c-0.3-0.5-0.4-1-0.4-1.7c0-1.1,0.3-1.9,0.9-2.4c0.6-0.6,1.7-0.9,3-1.1l3.5-0.4v-0.2c0-0.7-0.2-1.2-0.8-1.4
				c-0.5-0.2-1.1-0.3-2-0.3c-0.6,0-1.3,0.1-1.9,0.2c-0.5,0.1-0.9,0.2-1.3,0.4l-0.2,0.1l-0.2-0.2c-0.1-0.1-0.1-0.2-0.2-0.3
				c-0.1-0.3-0.2-0.6-0.2-0.8c0-0.4,0.1-0.7,0.3-0.9c0.2-0.2,0.5-0.4,0.9-0.6c0.4-0.2,1-0.3,1.6-0.4c0.7-0.1,1.3-0.1,1.8-0.1
				c0.9,0,1.7,0.1,2.4,0.3c0.7,0.2,1.3,0.4,1.8,0.8c0.5,0.3,0.9,0.8,1.1,1.3c0.3,0.5,0.4,1.2,0.4,1.9v5.5c0,0.4-0.1,0.7-0.3,0.9
				c-0.2,0.2-0.5,0.5-0.8,0.6C126.3,197.4,124.8,197.7,122.9,197.7 M122.9,192.5c-0.5,0-0.9,0.1-1.3,0.3c-0.4,0.2-0.6,0.6-0.6,1
				s0.2,0.8,0.5,1c0.3,0.2,0.8,0.4,1.5,0.4c0.3,0,0.6,0,1-0.1c0.1,0,0.4-0.1,0.6-0.2l0.1,0v-2.6L122.9,192.5L122.9,192.5z"/>
			<path class="st1" d="M142,183.6c-1.1,0-1.9-0.9-1.9-1.9s0.9-1.9,1.9-1.9s1.9,0.9,1.9,1.9S143.1,183.6,142,183.6"/>
			<path class="st1" d="M142.4,197.7c-0.4,0-0.7,0-0.9-0.1c-0.2,0-0.5-0.1-0.6-0.2c-0.2-0.1-0.3-0.3-0.4-0.5
				c-0.1-0.2-0.1-0.5-0.1-0.9v-10.3l0.6-0.1c0.4-0.1,0.7-0.1,1.1-0.1s0.7,0,0.9,0.1c0.2,0,0.5,0.1,0.6,0.2c0.2,0.1,0.3,0.3,0.4,0.5
				c0.1,0.2,0.1,0.5,0.1,0.9v10.3l-0.6,0.1C143.1,197.6,142.7,197.7,142.4,197.7"/>
			<path class="st1" d="M58.4,183.6c-1.1,0-1.9-0.9-1.9-1.9s0.9-1.9,1.9-1.9s1.9,0.9,1.9,1.9S59.4,183.6,58.4,183.6"/>
			<path class="st1" d="M58.7,197.7c-0.3,0-0.7,0-1-0.1c-0.2,0-0.5-0.1-0.6-0.2c-0.2-0.1-0.3-0.3-0.4-0.5s-0.1-0.5-0.1-0.9v-10.3
				l0.6-0.1c0.3-0.1,0.7-0.1,1-0.1s0.7,0,1,0.1c0.2,0,0.5,0.1,0.6,0.2c0.2,0.1,0.3,0.3,0.4,0.5c0.1,0.2,0.1,0.5,0.1,0.9v10.3
				l-0.6,0.1C59.4,197.6,59.1,197.7,58.7,197.7"/>
			<path class="st1" d="M80.3,197.7c-0.3,0-0.7,0-0.9-0.1c-0.2,0-0.5-0.1-0.6-0.2c-0.2-0.1-0.3-0.3-0.4-0.5s-0.1-0.5-0.1-0.9v-6
				c0-0.6-0.2-1-0.5-1.3c-0.3-0.3-0.8-0.4-1.3-0.4c-0.3,0-0.6,0.1-0.9,0.2s-0.5,0.2-0.7,0.4l-0.1,0.1l0,0.1l0,0.3v8.2l-0.6,0.1
				c-0.3,0.1-0.7,0.1-1.1,0.1s-0.7,0-0.9-0.1c-0.2,0-0.5-0.1-0.6-0.2c-0.2-0.1-0.3-0.3-0.4-0.5c-0.1-0.2-0.1-0.5-0.1-0.9v-6
				c0-0.6-0.2-1-0.6-1.3c-0.4-0.3-0.8-0.4-1.3-0.4c-0.3,0-0.6,0.1-0.9,0.2c-0.2,0.1-0.4,0.2-0.6,0.3l-0.1,0.1l-0.1,0.1v8.7l-0.6,0.1
				c-0.3,0.1-0.7,0.1-1.1,0.1s-0.7,0-0.9-0.1c-0.2,0-0.5-0.1-0.6-0.2c-0.2-0.1-0.3-0.3-0.4-0.5c-0.1-0.2-0.1-0.5-0.1-0.9v-7.6
				c0-0.4,0.1-0.7,0.2-0.9c0.2-0.2,0.4-0.5,0.7-0.7c0.6-0.4,1.2-0.7,2-0.9c0.8-0.2,1.7-0.4,2.6-0.4c0.7,0,1.3,0.1,1.9,0.3
				c0.6,0.2,1.2,0.5,1.6,0.8l0.2,0.1l0.2-0.1c0.5-0.3,1-0.6,1.6-0.8s1.3-0.3,2.2-0.3c0.6,0,1.2,0.1,1.8,0.2c0.6,0.2,1.1,0.4,1.5,0.8
				c0.4,0.3,0.8,0.8,1.1,1.3c0.3,0.6,0.4,1.2,0.4,2.1v7.7l-0.6,0.1C81,197.7,80.6,197.7,80.3,197.7"/>
			<path class="st1" d="M95.5,197.7c-1.6,0-3-0.3-4.2-1c-1.2-0.7-2.2-1.6-2.9-2.8c-0.7-1.2-1-2.6-1-4.2s0.3-3,1-4.2
				c0.7-1.2,1.7-2.2,2.9-2.9c1.2-0.7,2.7-1,4.2-1c0.9,0,1.8,0.1,2.5,0.3c0.8,0.2,1.4,0.5,1.9,0.9c0.6,0.5,0.9,1,0.9,1.6
				c0,0.4-0.1,0.8-0.4,1.2c-0.2,0.4-0.6,0.7-0.9,0.9l-0.4,0.2l-0.3-0.4c-0.3-0.4-0.8-0.7-1.4-0.9c-0.6-0.3-1.3-0.4-1.9-0.4
				c-0.8,0-1.6,0.2-2.2,0.6c-0.6,0.4-1.1,0.9-1.5,1.6c-0.4,0.7-0.5,1.5-0.5,2.5s0.2,1.7,0.6,2.4c0.4,0.7,0.9,1.2,1.6,1.6
				c0.7,0.4,1.5,0.6,2.4,0.6c0.6,0,1.2-0.1,1.8-0.2c0.3-0.1,0.5-0.1,0.7-0.2c0.2-0.1,0.4-0.1,0.6-0.1c0.5,0,0.9,0.2,1.2,0.6l1.3,1.7
				l-0.5,0.4c-0.6,0.4-1.4,0.8-2.3,1.1C97.5,197.5,96.5,197.7,95.5,197.7"/>
			<path class="st1" d="M132.9,197.7c-0.7,0-1.3-0.2-1.8-0.6c-0.4-0.4-0.7-0.9-0.7-1.7V190c0-0.6,0.1-1.1,0.2-1.7
				c0.2-0.6,0.4-1.1,0.8-1.5c0.4-0.4,0.8-0.8,1.4-1c0.6-0.3,1.2-0.4,2-0.4c0.5,0,0.9,0.1,1.2,0.2c0.4,0.1,0.6,0.3,0.9,0.5
				c0.2,0.2,0.4,0.5,0.5,0.7c0.1,0.3,0.1,0.5,0.1,0.8v1.5l-0.4-0.1c-0.4-0.1-0.7-0.1-0.9-0.2c-0.2-0.1-0.5-0.1-0.8-0.1
				c-0.4,0-0.7,0.1-0.9,0.4c-0.2,0.2-0.3,0.7-0.3,1.3v7.2L132.9,197.7L132.9,197.7z"/>
			<path class="st1" d="M161.3,202.1c-1.5,0-2.6-0.2-3.5-0.6c-0.8-0.4-1.1-0.9-1.1-1.8c0-0.3,0.1-0.6,0.2-0.9
				c0.1-0.1,0.1-0.2,0.1-0.2l0.2-0.2l0.3,0.1c0.5,0.2,1,0.4,1.6,0.6c0.5,0.1,1,0.2,1.5,0.2c0.1,0,0.1,0,0.2,0c0.8,0,1.5-0.2,2-0.5
				c0.6-0.4,0.9-0.9,0.9-1.7v-0.8l-0.2,0.1c-0.5,0.2-1.3,0.4-2.3,0.4c-0.7,0-1.4-0.1-2.1-0.3c-0.6-0.2-1.2-0.6-1.7-1s-0.9-1-1.2-1.8
				c-0.2-0.6-0.4-1.2-0.4-2v-6.4h1.3c1.3,0,2.4,1.1,2.4,2.4v3.9c0.1,0.7,0.3,1.3,0.7,1.7c0.5,0.5,1.1,0.7,1.8,0.7
				c0.6,0,1.2-0.1,1.6-0.4l0.1-0.1v-8.3h1.3c1.4,0,2.4,1.1,2.4,2.4v9.3c0,0.8-0.2,1.6-0.5,2.2c-0.3,0.6-0.8,1.1-1.3,1.5
				c-0.5,0.4-1.2,0.7-1.9,0.9C163,202,162.1,202.1,161.3,202.1"/>
			<path class="st1" d="M60.8,154.2c-1.1,0-2-0.9-2-2s0.9-2,2-2s2,0.9,2,2S61.9,154.2,60.8,154.2"/>
			<path class="st1" d="M120.3,154.2c-1.1,0-2-0.9-2-2s0.9-2,2-2s2,0.9,2,2S121.4,154.2,120.3,154.2"/>
			<path class="st1" d="M125.6,154.2c-1.1,0-2-0.9-2-2s0.9-2,2-2s2,0.9,2,2S126.7,154.2,125.6,154.2"/>
			<path class="st1" d="M122.9,149c-1.1,0-2-0.9-2-2s0.9-2,2-2s2,0.9,2,2S124,149,122.9,149"/>
			<path class="st1" d="M166.2,170.9c-1.4,0-2.6-1.2-2.6-2.6v-16.7h1.2c1.4,0,2.6,1.2,2.6,2.6v16.7H166.2z"/>
			<path class="st1" d="M7.7,170.9c-4.3,0-7.7-3.5-7.7-7.7c0-3.9,3.2-7.1,7.1-7.1c0.1,0,0.1,0,0.2,0c3.8,0.1,6.9,3.3,6.9,7.2v3.8
				h7.4v-8.5c0-1.4,1.2-2.6,2.6-2.6h1.2v14.9L7.7,170.9L7.7,170.9z M7.1,159.9c-1.8,0-3.3,1.5-3.3,3.3c0,2.2,1.8,3.9,3.9,3.9h2.7
				v-3.9C10.4,161.4,8.9,159.9,7.1,159.9"/>
			<path class="st1" d="M82.5,170.9c-1.4,0-2.6-1.2-2.6-2.6v-16.7h1.2c1.4,0,2.6,1.2,2.6,2.6v16.7H82.5z"/>
			<path class="st1" d="M4.7,154.2c-1.1,0-2-0.9-2-2s0.9-2,2-2s2,0.9,2,2S5.8,154.2,4.7,154.2"/>
			<path class="st1" d="M10,154.2c-1.1,0-2-0.9-2-2s0.9-2,2-2s2,0.9,2,2S11.1,154.2,10,154.2"/>
			<path class="st1" d="M17.2,176.8c-1.1,0-2-0.9-2-2s0.9-2,2-2s2,0.9,2,2S18.3,176.8,17.2,176.8"/>
			<path class="st1" d="M22.5,176.8c-1.1,0-2-0.9-2-2s0.9-2,2-2s2,0.9,2,2S23.5,176.8,22.5,176.8"/>
			<path class="st1" d="M41.3,176.8c-1.1,0-2-0.9-2-2s0.9-2,2-2s2,0.9,2,2S42.4,176.8,41.3,176.8"/>
			<path class="st1" d="M46.6,176.8c-1.1,0-2-0.9-2-2s0.9-2,2-2s2,0.9,2,2S47.7,176.8,46.6,176.8"/>
			<path class="st1" d="M107.8,176.8c-1.1,0-2-0.9-2-2s0.9-2,2-2s2,0.9,2,2S108.9,176.8,107.8,176.8"/>
			<path class="st1" d="M113.1,176.8c-1.1,0-2-0.9-2-2s0.9-2,2-2s2,0.9,2,2S114.2,176.8,113.1,176.8"/>
			<path class="st1" d="M32.1,178.5c-1.3,0-3.5-1-3.6-3.8c0-0.2,0-0.7,0-0.7s1,0.9,2.4,1c0.4,0,0.8-0.1,1.1-0.2
				c0.4-0.2,1.5-0.6,1.5-3.4v-0.5v-0.2v-4.7v-0.1v-4.1c0-1.4,1.2-2.6,2.6-2.6h1.2v3.8l0,0.2v4.1h7.7v-8.5c0-1.4,1.2-2.6,2.6-2.6h1.2
				v11.1h15.2v-3.5c0-2-1.5-3.6-3.4-3.8c-0.1,0-0.2,0-0.2,0c-1.5,0-2.9,1-3.4,2.5c-0.3,0.9-1.2,1.5-2.1,1.5h-1.8v-0.4
				c0-4.1,3.3-7.4,7.4-7.4c0.1,0,0.2,0,0.4,0c3.9,0.2,7,3.5,7,7.6v3.5h1.6v2.4c0,0.6-0.4,1.2-1.1,1.4l-0.2,0.1l0.1,0.2
				c0.3,0.4,0.7,0.8,1.2,0.9c0.2,0.1,0.4,0.1,0.6,0.1s0.4,0,0.6-0.1c1-0.3,1.7-1.2,1.7-2.2v-1.7v-13.9c0-1.4,1.2-2.6,2.6-2.6h1.2
				v18.3c0,2.8-1.9,5.2-4.5,5.8c-0.5,0.1-1,0.2-1.5,0.2s-1-0.1-1.5-0.2c-2.2-0.6-4-2.4-4.4-4.7l0-0.1H37.2v1.5
				C37.2,176,35.2,178.4,32.1,178.5L32.1,178.5L32.1,178.5z"/>
			<path class="st1" d="M126,175.9c-0.5,0-1-0.1-1.5-0.2c-2.2-0.6-4-2.4-4.4-4.7l0-0.1h-19.5c-1.1,0-2.7-0.1-3.7-0.7l-0.2-0.1v0.3
				c0,0.3,0,0.6,0,0.7c-0.1,2.2-2,3.6-3.7,3.6c-1.4,0-2.6-1.1-2.8-2.4l-0.1-0.4l0.5,0c0.1,0,0.1,0,0.2,0c0.2,0,0.3,0,0.4,0
				c1-0.1,1.7-0.8,1.7-1.6v-2.9v-3.8c0-4.1,3.3-7.4,7.4-7.4c0.2,0,0.4,0,0.5,0c3.7,0.3,6.7,3.3,6.9,7c0.1,1.3-0.2,2.6-0.8,3.8
				l-0.1,0.2h7.3v-8.5c0-1.4,1.2-2.6,2.6-2.6h1.2v11.1h6.1v2.7c0,1.1,0.7,2,1.6,2.2c0.2,0.1,0.4,0.1,0.6,0.1s0.4,0,0.6-0.1
				c1-0.3,1.6-1.2,1.6-2.2v-2.3v-8.8c0-1.4,1.2-2.6,2.6-2.6h1.2v8.9v2.1h6.4v-4.7c0-2.9,2-5.5,4.8-6.1c0.5-0.1,1-0.2,1.5-0.2
				c3.2,0,6.3,2.7,6.3,5.5v3.3h-1.1c-0.7,0-1.4-0.3-1.9-0.8c-0.5-0.5-0.8-1.1-0.8-1.8c0-0.5-0.3-1.1-0.8-1.6
				c-0.5-0.5-1.1-0.8-1.8-0.8c-0.2,0-0.4,0-0.6,0.1c-1.1,0.3-1.9,1.4-1.9,2.5v4.6h9.1v2.7c0,1.1,0.7,2,1.6,2.2
				c0.2,0.1,0.4,0.1,0.6,0.1s0.4,0,0.6-0.1c1-0.3,1.6-1.2,1.6-2.2v-1.7v-13.9c0-1.4,1.2-2.6,2.6-2.6h1.2v18.3c0,2.8-1.9,5.1-4.5,5.8
				c-0.5,0.1-1,0.2-1.5,0.2s-1-0.1-1.5-0.2c-2.2-0.6-4-2.4-4.4-4.7l0-0.1h-15.6l0,0.1c-0.4,2.3-2.2,4.1-4.4,4.7
				C127,175.9,126.5,176,126,175.9 M100.1,159.9c-2,0-3.6,1.6-3.6,3.6s1.5,3.5,3.3,3.6h0.5c1.9-0.1,3.3-1.7,3.3-3.6
				C103.7,161.5,102.1,159.9,100.1,159.9"/>
		</g>
		<path class="st1" d="M89.6,119.8c4.9-0.3,9.6-1.3,14-3.1c4.7-1.9,8.8-4.8,12.8-7.6c6.9-4.8,12.4-10.8,16.4-18.2
			c4-7.4,6.1-15.4,6.1-23.8c-0.1-18.5-7.9-33.1-23.2-43.5c-9.9-6.8-21-9.5-33-8.3c-16.3,1.6-29.2,9.3-38.3,22.8
			c-7.2,10.7-9.8,22.6-8.2,35.4c1.6,12.5,7.2,23,16.5,31.3c7.8,6.9,16.5,12.4,27,14.3c1.8,0.3,3.6,0.5,5.6,0.8
			c-0.2,1.4-0.2,2.9-0.6,4.3c-0.7,2.6-1.6,5.1-2.5,7.6c-0.3,0.9-0.8,1.2-1.7,1c-4.4-0.9-8.8-1.5-13.1-2.7c-7.2-2.1-13.8-5.5-19.8-10
			c-5.7-4.3-10.7-9.3-14.8-15.1c-3.9-5.4-6.8-11.3-8.9-17.6c-1.8-5.5-2.8-11.2-3.2-17c-0.5-6.5,0.2-13,1.7-19.4
			C26,37.1,33.1,25.4,43.9,16c6.3-5.4,13.3-9.5,21.1-12.3c8-2.8,16.2-4,24.7-3.7c12,0.4,23,3.8,33.2,10.2
			c12.2,7.7,21,18.3,26.4,31.7c4.4,11.1,5.7,22.7,3.9,34.5c-2.1,13.9-8,25.9-17.7,36.1c-7.5,7.8-16.4,13.5-26.7,17
			c-4.8,1.6-9.6,2.7-14.6,3.2c-0.9,0.1-1.5-0.1-1.9-1c-1.4-3.2-2.4-6.6-2.9-10.1C89.4,121.1,89.6,120.5,89.6,119.8L89.6,119.8z"/>
		<path class="st1" d="M49.5,66.6c2.1,1.5,4.2,2.9,6.1,4.3c6.7,5.1,13.2,10.5,18.7,16.8c3.8,4.2,7.2,8.7,9.2,14.1
			c1.8,4.7,2.5,9.6,2.2,14.7c0,0.2-0.1,0.5-0.1,0.7C61.2,117.3,42.7,91.2,49.5,66.6L49.5,66.6z"/>
		<path class="st1" d="M126,66.6c0.4,3.1,0.9,5.9,1.1,8.8c1.2,17.4-10.8,33.7-24.9,39.6c-3.8,1.6-7.7,2.2-11.7,2.5
			c-0.9,0.1-1-0.4-1-1.1c0.2-3.2,0.2-6.3,0.8-9.4c1.4-8.1,6.1-14.4,11.5-20.2c6.8-7.3,14.5-13.5,22.6-19.3
			C124.8,67.2,125.3,67,126,66.6L126,66.6z"/>
		<path class="st1" d="M87.8,35.8c1.8,2.1,3.7,4,5.3,6.2c4.1,5.7,6.1,12.2,6,19.2c-0.1,9.7-3.6,17.9-10.7,24.6c-0.6,0.6-1,0.6-1.7,0
			c-5.3-4.9-8.6-10.9-10.1-18c-1.5-7.3-0.5-14.4,2.6-21.1C81.3,42.6,84,39,87.8,35.8z"/>
	</g>
</g>
</svg>
