<?xml version="1.0" encoding="utf-8"?>
<!-- Generator: Adobe Illustrator 28.1.0, SVG Export Plug-In . SVG Version: 6.00 Build 0)  -->
<svg version="1.1" id="Layer_1" xmlns="http://www.w3.org/2000/svg" xmlns:xlink="http://www.w3.org/1999/xlink" x="0px" y="0px"
	 viewBox="0 0 1920 6661.47" style="enable-background:new 0 0 1920 6661.47;" xml:space="preserve">
<style type="text/css">
	.st0{fill:#234392;}
	.st1{opacity:0.5;}
	.st2{clip-path:url(#SVGID_00000135661364572489170900000012734255627177434262_);}
	.st3{fill:none;stroke:#46BFB1;stroke-width:2;stroke-miterlimit:10;}
</style>
<g>
	<rect x="-26.22" y="-42.55" class="st0" width="1989.42" height="6751.91"/>
	<g class="st1">
		<defs>
			<rect id="SVGID_1_" x="-40.7" y="-42.55" class="st1" width="1989.42" height="6751.91"/>
		</defs>
		<clipPath id="SVGID_00000062878472956651165240000007615272395325398974_">
			<use xlink:href="#SVGID_1_"  style="overflow:visible;"/>
		</clipPath>
		<g style="clip-path:url(#SVGID_00000062878472956651165240000007615272395325398974_);">
			<g>
				<path class="st3" d="M952.8-1109.98v-0.01c-10.38-0.18-20.77-0.25-31.22-0.26c-0.65,0-1.3-0.01-1.95-0.02
					c-0.04-0.01-0.07,0-0.1,0c-0.53-0.09-1.06-0.08-1.59,0c-0.03,0-0.06,0-0.1,0c-2.98,0.09-5.97,0.09-8.95,0.09
					c-2.98,0-5.97,0-8.95-0.09c-0.03,0-0.06,0-0.1,0c-0.53-0.09-1.06-0.08-1.59,0c-0.03,0-0.07-0.01-0.1,0
					c-0.65,0-1.3,0.02-1.96,0.02c-10.46,0.01-20.85,0.09-31.22,0.26v0.01c-2216.57,23.49-4006.22,1827.5-4006.22,4049.7
					c0,504.68,92.33,987.8,261.06,1433.33c534.39,1412.24,1835.74,2447.56,3395.71,2597.82c0.84,0.09,21.94,2.62,34.4,4.22
					c127.48-260.4,205-549.77,219.81-855.54c1.87-35.9,2.72-71.99,2.72-108.36c0-355.17-84.36-690.65-234.25-987.42
					c-0.19-0.28-0.28-0.56-0.47-0.84c-77.24-144.73-174.54-288.52-284.12-428.47c-628.97-803.42-1664.58-1479.92-1664.58-1479.92
					c-59.81,242.78-83.33,478.24-75.27,703.96c20.44,575.92,245.31,1088.85,592.51,1500.82c28.87,34.21,191.79,228.62,396.79,473.56
					c-353.29-173.04-669.66-410.01-934.18-695.72c-7.22-7.69-14.34-15.47-21.37-23.25c-6.75-7.41-13.5-15-20.15-22.5
					c-286.65-321.8-508.71-702.28-645.57-1120.91c-101.14-309.14-155.79-639.1-155.79-981.52v-9.28c0-12,0.09-24.09,0.28-36.09
					C-2254.5,1162.45-837.12-243,908.64-243.11c0.08,0,0.16,0,0.24,0s0.16,0,0.25,0C2654.89-243,4072.27,1162.45,4091.49,2903.64
					c0.18,12,0.28,24.09,0.28,36.09v9.28c0,342.42-54.64,672.37-155.79,981.52c-136.86,418.63-358.92,799.11-645.57,1120.91
					c-6.65,7.5-13.41,15.09-20.16,22.5c-7.03,7.78-14.15,15.56-21.37,23.25c-264.53,285.71-580.89,522.68-934.18,695.72
					c205-244.94,367.92-439.35,396.78-473.56c347.2-411.98,572.07-924.9,592.51-1500.82c8.06-225.72-15.47-461.18-75.27-703.96
					c0,0-1035.61,676.5-1664.58,1479.92c-109.58,139.95-206.88,283.74-284.12,428.47c-0.19,0.28-0.28,0.56-0.47,0.84
					c-149.88,296.77-234.25,632.25-234.25,987.42c0,36.37,0.85,72.46,2.72,108.36c14.81,305.77,92.33,595.14,219.81,855.54
					c12.47-1.59,33.56-4.12,34.41-4.22c1559.97-150.26,2861.32-1185.58,3395.71-2597.82c168.73-445.53,261.05-928.65,261.05-1433.33
					C4959.02,717.53,3169.37-1086.49,952.8-1109.98z"/>
			</g>
			<path class="st3" d="M1670.73,2908.13c0-411.88-112.15-796.62-306.28-1123.63c-3.42-5.76-6.72-11.6-10.19-17.32
				c-1.6-2.64-3.29-5.21-4.89-7.84c-119.43-195.17-268.31-369.2-440.34-515.23c-0.05,0.04-0.09,0.08-0.14,0.12
				c-0.05-0.04-0.09-0.08-0.14-0.12c-172.04,146.03-320.92,320.06-440.34,515.23c-1.61,2.63-3.3,5.2-4.9,7.84
				c-3.47,5.72-6.77,11.56-10.19,17.32c-194.14,327.01-306.28,711.75-306.28,1123.63c0,196.07,25.55,385.93,73.09,566.43
				c114.94,436.94,359.47,818.65,688.62,1098.05c0.05-0.04,0.09-0.08,0.14-0.12c0.05,0.04,0.09,0.08,0.14,0.12
				c329.15-279.4,573.68-661.11,688.62-1098.05C1645.18,3294.07,1670.73,3104.2,1670.73,2908.13z"/>
		</g>
	</g>
</g>
</svg>
