<?xml version="1.0" encoding="utf-8"?>
<!-- Generator: Adobe Illustrator 28.1.0, SVG Export Plug-In . SVG Version: 6.00 Build 0)  -->
<svg version="1.1" id="Layer_1" xmlns="http://www.w3.org/2000/svg" xmlns:xlink="http://www.w3.org/1999/xlink" x="0px" y="0px"
	 viewBox="0 0 300 300" style="enable-background:new 0 0 300 300;" xml:space="preserve">
<style type="text/css">
	.st0{fill:#234392;}
</style>
<g>
	<g>
		<g>
			<path class="st0" d="M150.72,33.81L150.72,33.81c-0.17,0-0.34,0-0.51,0c-0.01,0-0.02,0-0.03,0c0,0,0,0,0,0c-0.01,0-0.02,0-0.03,0
				c0,0,0,0,0,0c-0.05,0-0.1,0-0.15,0c-0.05,0-0.1,0-0.15,0c0,0,0,0,0,0c-0.01,0-0.02,0-0.03,0c0,0,0,0,0,0c-0.01,0-0.02,0-0.03,0
				c-0.17,0-0.34,0-0.51,0v0c-36.49,0.39-65.95,30.09-65.95,66.67c0,8.31,1.52,16.26,4.3,23.6c8.8,23.25,30.22,40.29,55.9,42.77
				c0.01,0,0.36,0.04,0.57,0.07c2.1-4.29,3.37-9.05,3.62-14.08c0.03-0.59,0.04-1.19,0.04-1.78c0-5.85-1.39-11.37-3.86-16.26
				c0,0,0-0.01-0.01-0.01c-1.27-2.38-2.87-4.75-4.68-7.05c-10.35-13.23-27.4-24.36-27.4-24.36c-0.98,4-1.37,7.87-1.24,11.59
				c0.34,9.48,4.04,17.93,9.75,24.71c0.48,0.56,3.16,3.76,6.53,7.8c-5.82-2.85-11.02-6.75-15.38-11.45
				c-0.12-0.13-0.24-0.25-0.35-0.38c-0.11-0.12-0.22-0.25-0.33-0.37c-4.72-5.3-8.37-11.56-10.63-18.45
				c-1.67-5.09-2.56-10.52-2.56-16.16v-0.15c0-0.2,0-0.4,0-0.59c0.32-28.66,23.65-51.8,52.39-51.8c0,0,0,0,0,0s0,0,0,0
				c28.74,0,52.07,23.14,52.39,51.8c0,0.2,0,0.4,0,0.59v0.15c0,5.64-0.9,11.07-2.56,16.16c-2.25,6.89-5.91,13.16-10.63,18.45
				c-0.11,0.12-0.22,0.25-0.33,0.37c-0.12,0.13-0.23,0.26-0.35,0.38c-4.35,4.7-9.56,8.6-15.38,11.45c3.37-4.03,6.06-7.23,6.53-7.8
				c5.72-6.78,9.42-15.23,9.75-24.71c0.13-3.72-0.25-7.59-1.24-11.59c0,0-17.05,11.14-27.4,24.36c-1.8,2.3-3.41,4.67-4.68,7.05
				c0,0,0,0.01-0.01,0.01c-2.47,4.89-3.86,10.41-3.86,16.26c0,0.6,0.01,1.19,0.04,1.78c0.24,5.03,1.52,9.8,3.62,14.08
				c0.21-0.03,0.55-0.07,0.57-0.07c25.68-2.47,47.1-19.52,55.9-42.77c2.78-7.33,4.3-15.29,4.3-23.6
				C216.68,63.9,187.21,34.2,150.72,33.81z"/>
		</g>
		<path class="st0" d="M162.54,99.96c0-6.78-1.85-13.11-5.04-18.5c-0.06-0.09-0.11-0.19-0.17-0.29c-0.03-0.04-0.05-0.09-0.08-0.13
			c-1.97-3.21-4.42-6.08-7.25-8.48c0,0,0,0,0,0c0,0,0,0,0,0c-2.83,2.4-5.28,5.27-7.25,8.48c-0.03,0.04-0.05,0.09-0.08,0.13
			c-0.06,0.09-0.11,0.19-0.17,0.29c-3.2,5.38-5.04,11.72-5.04,18.5c0,3.23,0.42,6.35,1.2,9.32c1.89,7.19,5.92,13.48,11.34,18.08
			c0,0,0,0,0,0c0,0,0,0,0,0c5.42-4.6,9.44-10.88,11.34-18.08C162.12,106.31,162.54,103.19,162.54,99.96z"/>
	</g>
	<g>
		<path class="st0" d="M35.5,259.61c-1.66,0-3.22-0.28-4.62-0.82c-1.4-0.53-2.62-1.32-3.64-2.35c-1.01-1.03-1.82-2.31-2.41-3.81
			c-0.58-1.52-0.87-3.27-0.87-5.21c0-1.99,0.3-3.75,0.9-5.24c0.58-1.5,1.4-2.77,2.44-3.79c1.02-1.02,2.25-1.8,3.64-2.32
			c1.39-0.53,2.92-0.8,4.57-0.8c1.64,0,3.18,0.27,4.58,0.8c1.39,0.53,2.63,1.31,3.66,2.32c1.03,1.01,1.86,2.28,2.45,3.79
			c0.59,1.49,0.89,3.26,0.89,5.24c0,1.97-0.3,3.74-0.88,5.26c-0.58,1.51-1.39,2.79-2.42,3.8c-1.04,1.02-2.27,1.8-3.66,2.32
			C38.72,259.34,37.16,259.61,35.5,259.61z M35.54,239.46c-1.78,0-3.24,0.68-4.33,2.01c-1.07,1.32-1.62,3.32-1.62,5.95
			c0,2.62,0.53,4.63,1.59,5.96c1.07,1.35,2.52,2.04,4.31,2.04c1.82,0,3.28-0.69,4.36-2.04c1.06-1.34,1.59-3.34,1.59-5.96
			c0-2.6-0.53-4.59-1.57-5.91C38.82,240.15,37.36,239.46,35.54,239.46z"/>
		<path class="st0" d="M57.78,259.5c-2.11,0-3.75-0.48-4.86-1.42c-1.1-0.92-1.65-2.47-1.65-4.61v-17.98l0.85-0.16
			c0.5-0.08,1.03-0.13,1.58-0.13c1.02,0,1.82,0.18,2.38,0.53c0.49,0.31,0.74,1.03,0.74,2.14v3.24h5.12l0.13,0.34
			c0.05,0.13,0.11,0.28,0.16,0.43c0.12,0.37,0.19,0.79,0.19,1.25c0,0.77-0.16,1.31-0.47,1.62c-0.31,0.31-0.74,0.47-1.28,0.47h-3.77
			v7.79c0,0.8,0.27,1.38,0.8,1.74c0.49,0.32,1.14,0.48,1.98,0.48c0.4,0,0.81-0.03,1.23-0.1c0.15-0.02,0.26-0.05,0.37-0.07l0.4-0.1
			l0.21,0.33c0.06,0.1,0.11,0.2,0.16,0.3c0.14,0.29,0.21,0.64,0.21,1.06c0,0.82-0.32,1.52-0.93,2.04
			C60.66,259.24,59.54,259.5,57.78,259.5z"/>
		<path class="st0" d="M251.92,259.57c-2.11,0-3.75-0.48-4.86-1.42c-1.1-0.92-1.65-2.47-1.65-4.61v-17.98l0.85-0.16
			c0.51-0.08,1.04-0.13,1.58-0.13c1.02,0,1.82,0.18,2.38,0.53c0.49,0.31,0.74,1.03,0.74,2.14v3.24h5.12l0.13,0.34
			c0.05,0.13,0.11,0.28,0.16,0.43c0.12,0.37,0.19,0.79,0.19,1.25c0,0.77-0.16,1.31-0.47,1.62c-0.31,0.31-0.74,0.47-1.28,0.47h-3.77
			v7.79c0,0.8,0.27,1.38,0.8,1.74c0.49,0.33,1.14,0.48,1.98,0.48c0.4,0,0.81-0.03,1.23-0.1c0.16-0.02,0.27-0.05,0.4-0.08l0.39-0.1
			l0.2,0.34c0.05,0.09,0.11,0.19,0.16,0.3c0.14,0.28,0.2,0.64,0.2,1.05c0,0.83-0.31,1.51-0.94,2.04
			C254.81,259.31,253.68,259.57,251.92,259.57z"/>
		<path class="st0" d="M81.83,259.57c-0.53,0-1.01-0.04-1.43-0.11c-0.38-0.07-0.69-0.19-0.94-0.38c-0.25-0.19-0.43-0.44-0.57-0.76
			c-0.14-0.34-0.21-0.8-0.21-1.37v-8.4c0-1.16-0.31-2-0.93-2.49c-0.59-0.47-1.32-0.71-2.16-0.71c-0.54,0-1.06,0.07-1.54,0.2
			c-0.49,0.13-0.89,0.3-1.2,0.5l-0.12,0.07l-0.07,0.18v13.02l-0.84,0.13c-0.53,0.07-1.08,0.11-1.63,0.11c-0.52,0-1-0.04-1.43-0.11
			c-0.38-0.07-0.69-0.19-0.94-0.38c-0.25-0.19-0.43-0.43-0.57-0.75c-0.14-0.34-0.21-0.8-0.21-1.36v-21.44l0.89-0.14
			c0.52-0.08,1.06-0.13,1.58-0.13c0.53,0,1.01,0.04,1.43,0.11c0.38,0.06,0.69,0.18,0.95,0.37c0.24,0.18,0.43,0.42,0.56,0.74
			c0.14,0.33,0.21,0.77,0.21,1.33v4.19l0.55-0.21c0.31-0.12,0.78-0.25,1.45-0.42c0.64-0.16,1.35-0.24,2.12-0.24
			c2.38,0,4.26,0.6,5.58,1.77c1.3,1.16,1.97,2.94,1.97,5.28v11.16l-0.84,0.13C82.93,259.54,82.38,259.57,81.83,259.57z"/>
		<path class="st0" d="M194.54,259.57c-0.53,0-1.01-0.04-1.42-0.11c-0.38-0.06-0.7-0.19-0.95-0.38c-0.25-0.19-0.43-0.43-0.57-0.76
			c-0.14-0.34-0.21-0.8-0.21-1.37v-8.4c0-1.16-0.31-2-0.93-2.49c-0.59-0.47-1.31-0.71-2.16-0.71c-0.54,0-1.06,0.07-1.54,0.2
			c-0.48,0.13-0.89,0.3-1.2,0.5l-0.12,0.07l-0.07,0.18v13.02l-0.84,0.13c-0.54,0.07-1.09,0.11-1.63,0.11c-0.52,0-1-0.04-1.43-0.11
			c-0.38-0.07-0.69-0.19-0.94-0.38c-0.25-0.19-0.43-0.43-0.57-0.75c-0.14-0.34-0.21-0.8-0.21-1.36v-21.44l0.89-0.14
			c0.52-0.08,1.06-0.13,1.58-0.13c0.53,0,1.01,0.04,1.43,0.11c0.37,0.06,0.69,0.18,0.94,0.37c0.24,0.18,0.43,0.42,0.56,0.74
			c0.14,0.33,0.21,0.77,0.21,1.33v4.19l0.55-0.21c0.31-0.12,0.78-0.25,1.45-0.42c0.64-0.16,1.35-0.24,2.11-0.24
			c2.38,0,4.26,0.6,5.58,1.77c1.3,1.16,1.97,2.94,1.97,5.28v11.16l-0.84,0.13C195.64,259.54,195.09,259.57,194.54,259.57z"/>
		<path class="st0" d="M96.54,259.61c-1.29,0-2.47-0.12-3.52-0.37c-1.02-0.23-1.9-0.59-2.63-1.07c-0.7-0.44-1.25-1.03-1.64-1.75
			c-0.38-0.71-0.58-1.55-0.58-2.51c0-1.61,0.47-2.81,1.42-3.66c0.97-0.86,2.5-1.4,4.57-1.61l5.32-0.56v-0.36
			c0-1.09-0.37-1.76-1.19-2.16c-0.72-0.34-1.68-0.5-2.96-0.5c-0.96,0-1.94,0.1-2.89,0.31c-0.71,0.16-1.38,0.34-1.97,0.55l-0.38,0.13
			l-0.23-0.33c-0.09-0.13-0.18-0.27-0.26-0.43c-0.2-0.41-0.3-0.84-0.3-1.26c0-0.56,0.13-1,0.39-1.31c0.27-0.33,0.71-0.61,1.3-0.86
			c0.66-0.25,1.5-0.45,2.47-0.57c0.99-0.12,1.92-0.18,2.77-0.18c1.34,0,2.56,0.14,3.63,0.4c1.07,0.25,1.98,0.65,2.74,1.18
			c0.73,0.52,1.31,1.18,1.7,1.98c0.4,0.8,0.61,1.76,0.61,2.87v8.34c0,0.55-0.15,0.99-0.46,1.33c-0.32,0.37-0.73,0.7-1.2,0.98
			C101.69,259.14,99.43,259.61,96.54,259.61z M96.59,251.75c-0.77,0.05-1.4,0.22-1.91,0.5c-0.58,0.31-0.89,0.82-0.89,1.46
			c0,0.63,0.24,1.12,0.74,1.51c0.46,0.37,1.19,0.56,2.24,0.56c0.46,0,0.96-0.04,1.48-0.13c0.21-0.04,0.57-0.14,0.87-0.24l0.17-0.06
			v-3.83L96.59,251.75z"/>
		<path class="st0" d="M208.99,259.61c-1.29,0-2.47-0.12-3.52-0.37c-1.02-0.23-1.91-0.59-2.63-1.07c-0.7-0.44-1.25-1.03-1.64-1.75
			c-0.38-0.71-0.58-1.55-0.58-2.5c0-1.61,0.47-2.8,1.42-3.66c0.97-0.86,2.5-1.4,4.57-1.61l5.32-0.56v-0.36
			c0-1.09-0.37-1.76-1.19-2.16c-0.72-0.34-1.68-0.5-2.96-0.5c-0.96,0-1.94,0.1-2.89,0.31c-0.71,0.16-1.37,0.34-1.97,0.55l-0.38,0.13
			l-0.23-0.32c-0.09-0.12-0.18-0.27-0.26-0.43c-0.2-0.42-0.3-0.85-0.3-1.27c0-0.55,0.13-0.99,0.39-1.31
			c0.27-0.33,0.71-0.62,1.3-0.86c0.66-0.25,1.5-0.45,2.47-0.57c0.99-0.12,1.92-0.18,2.77-0.18c1.34,0,2.56,0.14,3.63,0.4
			c1.07,0.25,1.99,0.65,2.74,1.19c0.73,0.52,1.31,1.18,1.7,1.98c0.4,0.8,0.61,1.76,0.61,2.87v8.34c0,0.55-0.15,0.99-0.46,1.33
			c-0.32,0.37-0.72,0.7-1.2,0.98C214.14,259.14,211.88,259.61,208.99,259.61z M209.04,251.75c-0.77,0.05-1.4,0.22-1.91,0.5
			c-0.58,0.32-0.89,0.82-0.89,1.46c0,0.63,0.24,1.12,0.74,1.51c0.46,0.37,1.2,0.56,2.24,0.56c0.46,0,0.96-0.04,1.48-0.13
			c0.21-0.04,0.57-0.14,0.87-0.24l0.17-0.06v-3.83L209.04,251.75z"/>
		<path class="st0" d="M237.81,238.41c-1.6,0-2.9-1.3-2.9-2.9c0-1.6,1.3-2.9,2.9-2.9c1.6,0,2.9,1.3,2.9,2.9
			C240.72,237.11,239.41,238.41,237.81,238.41z"/>
		<path class="st0" d="M238.38,259.57c-0.53,0-1.01-0.04-1.43-0.11c-0.37-0.06-0.69-0.19-0.94-0.38c-0.25-0.19-0.43-0.44-0.57-0.76
			c-0.15-0.34-0.22-0.79-0.22-1.38v-15.54l0.89-0.15c0.53-0.09,1.06-0.13,1.58-0.13c0.53,0,1.01,0.04,1.43,0.11
			c0.38,0.07,0.7,0.2,0.94,0.38c0.24,0.18,0.43,0.43,0.57,0.76c0.14,0.35,0.22,0.81,0.22,1.38v15.53l-0.89,0.15
			C239.43,259.53,238.89,259.57,238.38,259.57z"/>
		<path class="st0" d="M111.83,238.41c-1.6,0-2.9-1.3-2.9-2.9c0-1.6,1.3-2.9,2.9-2.9c1.6,0,2.9,1.3,2.9,2.9
			C114.73,237.11,113.43,238.41,111.83,238.41z"/>
		<path class="st0" d="M112.39,259.57c-0.53,0-1.01-0.04-1.42-0.11c-0.37-0.06-0.69-0.19-0.94-0.38c-0.25-0.19-0.43-0.44-0.57-0.76
			c-0.14-0.34-0.21-0.8-0.21-1.38v-15.54l0.89-0.15c0.53-0.09,1.06-0.13,1.58-0.13c0.53,0,1.01,0.04,1.43,0.11
			c0.38,0.07,0.7,0.2,0.94,0.38c0.24,0.18,0.43,0.43,0.57,0.76c0.14,0.35,0.21,0.8,0.21,1.38v15.53l-0.89,0.15
			C113.44,259.53,112.91,259.57,112.39,259.57z"/>
		<path class="st0" d="M144.87,259.57c-0.53,0-1.01-0.04-1.42-0.11c-0.37-0.06-0.69-0.19-0.94-0.38c-0.25-0.19-0.43-0.43-0.57-0.76
			c-0.14-0.34-0.21-0.8-0.21-1.37v-9.04c0-0.88-0.27-1.54-0.8-1.96c-0.5-0.4-1.17-0.6-1.99-0.6c-0.41,0-0.84,0.09-1.29,0.27
			c-0.45,0.18-0.78,0.37-1.02,0.58l-0.12,0.1l-0.03,0.21l0.05,0.52l0,12.29l-0.88,0.14c-0.53,0.07-1.07,0.11-1.59,0.11
			c-0.53,0-1.01-0.04-1.43-0.11c-0.38-0.07-0.7-0.19-0.94-0.38c-0.25-0.18-0.43-0.43-0.57-0.76c-0.14-0.34-0.21-0.8-0.21-1.38v-9.04
			c0-0.9-0.28-1.55-0.86-1.97c-0.54-0.39-1.18-0.59-1.92-0.59c-0.51,0-0.96,0.08-1.33,0.24c-0.35,0.15-0.64,0.28-0.87,0.42
			l-0.13,0.07l-0.08,0.19v13.06l-0.84,0.13c-0.53,0.07-1.08,0.11-1.63,0.11c-0.53,0-1.01-0.04-1.42-0.11
			c-0.38-0.06-0.69-0.19-0.94-0.38c-0.24-0.19-0.43-0.43-0.57-0.76c-0.14-0.35-0.21-0.8-0.21-1.38v-11.42
			c0-0.59,0.12-1.06,0.36-1.39c0.26-0.36,0.63-0.71,1.1-1.04c0.82-0.58,1.86-1.06,3.08-1.42c1.24-0.37,2.54-0.55,3.88-0.55
			c0.99,0,1.97,0.14,2.93,0.42c0.94,0.27,1.77,0.69,2.45,1.24l0.23,0.18l0.24-0.16c0.72-0.48,1.55-0.89,2.46-1.2
			c0.91-0.31,2.02-0.47,3.29-0.47c0.91,0,1.82,0.12,2.71,0.37c0.86,0.24,1.65,0.61,2.32,1.13c0.66,0.5,1.2,1.17,1.6,2.01
			c0.4,0.84,0.6,1.88,0.6,3.1v11.61l-0.84,0.13C145.97,259.54,145.42,259.57,144.87,259.57z"/>
		<path class="st0" d="M167.81,259.57c-2.36,0-4.48-0.51-6.31-1.53c-1.84-1.02-3.29-2.45-4.33-4.27c-1.04-1.81-1.56-3.91-1.56-6.27
			c0-2.39,0.52-4.53,1.54-6.36c1.03-1.85,2.49-3.31,4.35-4.34c1.84-1.02,4-1.54,6.4-1.54c1.37,0,2.64,0.16,3.8,0.49
			c1.19,0.33,2.17,0.79,2.92,1.37c0.9,0.7,1.36,1.52,1.36,2.46c0,0.58-0.2,1.18-0.59,1.78c-0.37,0.57-0.84,1.02-1.38,1.33
			l-0.66,0.36l-0.5-0.57c-0.47-0.54-1.19-1.01-2.13-1.38c-0.97-0.39-1.96-0.58-2.94-0.58c-1.28,0-2.41,0.29-3.38,0.87
			c-0.96,0.57-1.71,1.39-2.24,2.41c-0.54,1.04-0.81,2.29-0.81,3.72c0,1.37,0.28,2.58,0.84,3.58c0.56,0.99,1.34,1.78,2.34,2.33
			c1.01,0.56,2.23,0.84,3.62,0.84c0.9,0,1.82-0.12,2.71-0.36c0.39-0.1,0.75-0.22,1.07-0.35c0.28-0.11,0.57-0.17,0.87-0.17
			c0.72,0,1.37,0.33,1.79,0.9l1.9,2.57l-0.75,0.55c-0.9,0.66-2.09,1.2-3.53,1.59C170.79,259.38,169.31,259.57,167.81,259.57z"/>
		<path class="st0" d="M224.09,259.6c-1.09,0-1.97-0.28-2.63-0.83c-0.67-0.56-1.01-1.4-1.01-2.5v-8.22c0-0.85,0.12-1.7,0.36-2.53
			c0.24-0.84,0.63-1.59,1.15-2.23c0.53-0.64,1.21-1.17,2.04-1.56c0.82-0.4,1.83-0.6,2.99-0.6c0.71,0,1.34,0.1,1.86,0.3
			c0.53,0.2,0.96,0.46,1.28,0.79c0.33,0.33,0.57,0.7,0.71,1.11c0.15,0.4,0.22,0.81,0.22,1.21v2.31l-0.63-0.12
			c-0.56-0.11-1.02-0.2-1.38-0.29c-0.37-0.09-0.79-0.13-1.23-0.13c-0.59,0-1.02,0.17-1.31,0.52c-0.31,0.37-0.46,1.01-0.46,1.95
			v10.83H224.09z"/>
		<path class="st0" d="M266.81,266.2c-2.23,0-3.99-0.3-5.24-0.9c-1.18-0.56-1.73-1.4-1.73-2.64c0-0.51,0.1-0.96,0.31-1.34
			c0.08-0.13,0.15-0.26,0.23-0.36l0.26-0.35l0.4,0.19c0.72,0.35,1.52,0.64,2.38,0.87c0.75,0.2,1.52,0.3,2.26,0.3
			c0.1,0,0.19,0,0.29,0c1.24-0.04,2.26-0.29,3.03-0.72c0.96-0.54,1.42-1.38,1.42-2.55v-1.14l-0.35,0.14
			c-0.76,0.31-1.97,0.67-3.44,0.67c-1.08,0-2.12-0.17-3.1-0.49c-0.96-0.32-1.81-0.83-2.54-1.5c-0.72-0.68-1.31-1.57-1.76-2.65
			c-0.35-0.85-0.57-1.86-0.64-3.01l0-9.57l1.94,0.01c2.02,0.01,3.66,1.66,3.66,3.68l0,5.9c0.11,1.12,0.44,1.96,0.99,2.53
			c0.7,0.72,1.59,1.09,2.66,1.09c0.98,0,1.81-0.21,2.46-0.63l0.12-0.07v-12.5h1.97c2.03,0,3.68,1.65,3.68,3.69v14
			c0,1.26-0.24,2.36-0.71,3.28c-0.47,0.91-1.13,1.68-1.94,2.29c-0.82,0.61-1.8,1.06-2.93,1.35
			C269.31,266.04,268.08,266.2,266.81,266.2z"/>
		<path class="st0" d="M115.55,194.06c-1.62,0-2.95-1.32-2.95-2.95c0-1.62,1.32-2.95,2.95-2.95c1.62,0,2.95,1.32,2.95,2.95
			C118.5,192.74,117.17,194.06,115.55,194.06z"/>
		<path class="st0" d="M205.08,194.06c-1.62,0-2.95-1.32-2.95-2.95c0-1.62,1.32-2.95,2.95-2.95s2.95,1.32,2.95,2.95
			C208.03,192.74,206.71,194.06,205.08,194.06z"/>
		<path class="st0" d="M213.07,194.06c-1.62,0-2.95-1.32-2.95-2.95c0-1.62,1.32-2.95,2.95-2.95c1.62,0,2.95,1.32,2.95,2.95
			C216.02,192.74,214.69,194.06,213.07,194.06z"/>
		<path class="st0" d="M209.08,186.22c-1.63,0-2.95-1.32-2.95-2.95c0-1.63,1.32-2.95,2.95-2.95c1.62,0,2.95,1.32,2.95,2.95
			C212.02,184.9,210.7,186.22,209.08,186.22z"/>
		<path class="st0" d="M274.19,219.34c-2.14,0-3.89-1.74-3.89-3.89v-25.18h1.85c2.14,0,3.89,1.74,3.89,3.89v25.18H274.19z"/>
		<path class="st0" d="M35.59,219.34c-6.42,0-11.64-5.22-11.64-11.64c0-5.9,4.79-10.69,10.69-10.69c0.09,0,0.17,0,0.26,0.01
			c5.76,0.1,10.43,4.97,10.43,10.85v5.72h11.12v-12.77c0-2.14,1.74-3.88,3.89-3.88h1.85v22.39H35.59z M34.64,202.74
			c-2.73,0-4.95,2.22-4.95,4.95c0,3.25,2.65,5.9,5.9,5.9h4v-5.9C39.59,204.97,37.37,202.74,34.64,202.74z"/>
		<path class="st0" d="M148.24,219.34c-2.14,0-3.89-1.74-3.89-3.89v-25.18h1.85c2.14,0,3.89,1.74,3.89,3.89v25.18H148.24z"/>
		<path class="st0" d="M31.01,194.06c-1.62,0-2.95-1.32-2.95-2.95c0-1.62,1.32-2.95,2.95-2.95c1.62,0,2.95,1.32,2.95,2.95
			C33.96,192.74,32.63,194.06,31.01,194.06z"/>
		<path class="st0" d="M39,194.06c-1.62,0-2.95-1.32-2.95-2.95c0-1.62,1.32-2.95,2.95-2.95c1.62,0,2.95,1.32,2.95,2.95
			C41.94,192.74,40.62,194.06,39,194.06z"/>
		<path class="st0" d="M49.81,228.17c-1.62,0-2.95-1.32-2.95-2.95c0-1.63,1.32-2.95,2.95-2.95c1.62,0,2.95,1.32,2.95,2.95
			C52.75,226.85,51.43,228.17,49.81,228.17z"/>
		<path class="st0" d="M57.79,228.17c-1.62,0-2.95-1.32-2.95-2.95c0-1.63,1.32-2.95,2.95-2.95c1.62,0,2.95,1.32,2.95,2.95
			C60.74,226.85,59.42,228.17,57.79,228.17z"/>
		<path class="st0" d="M86.14,228.17c-1.62,0-2.95-1.32-2.95-2.95c0-1.63,1.32-2.95,2.95-2.95c1.62,0,2.95,1.32,2.95,2.95
			C89.09,226.85,87.76,228.17,86.14,228.17z"/>
		<path class="st0" d="M94.13,228.17c-1.62,0-2.95-1.32-2.95-2.95c0-1.63,1.32-2.95,2.95-2.95c1.62,0,2.95,1.32,2.95,2.95
			C97.07,226.85,95.75,228.17,94.13,228.17z"/>
		<path class="st0" d="M186.3,228.17c-1.63,0-2.95-1.32-2.95-2.95c0-1.63,1.32-2.95,2.95-2.95c1.62,0,2.95,1.32,2.95,2.95
			C189.24,226.85,187.92,228.17,186.3,228.17z"/>
		<path class="st0" d="M194.28,228.17c-1.63,0-2.95-1.32-2.95-2.95c0-1.63,1.32-2.95,2.95-2.95c1.62,0,2.95,1.32,2.95,2.95
			C197.23,226.85,195.91,228.17,194.28,228.17z"/>
		<path class="st0" d="M72.29,230.65c-1.99,0-5.3-1.56-5.5-5.76c-0.01-0.27-0.04-1.1-0.04-1.1s1.45,1.43,3.56,1.45
			c0.62,0.01,1.24-0.11,1.67-0.29c0.6-0.25,2.21-0.93,2.21-5.18l0-0.69l-0.01-0.3l0-3.88l-0.01-3.21l0.01-0.13l0-6.2
			c0-2.14,1.74-3.89,3.89-3.89h1.84v5.66l0.03,0.28l0,6.17h11.54v-12.76c0-2.14,1.74-3.89,3.89-3.89h1.85v16.65h22.9v-5.32
			c0-2.99-2.24-5.48-5.1-5.67c-0.13-0.01-0.25-0.01-0.37-0.01c-2.34,0-4.42,1.49-5.18,3.71c-0.47,1.38-1.76,2.31-3.19,2.31h-2.73
			v-0.55c0-6.12,4.98-11.1,11.09-11.1c0.19,0,0.37,0,0.56,0.01c5.91,0.29,10.54,5.29,10.54,11.39v5.23h2.44v3.6
			c0,0.96-0.65,1.81-1.58,2.06l-0.34,0.09l0.19,0.29c0.44,0.67,1.1,1.16,1.85,1.37c0.29,0.08,0.59,0.11,0.88,0.11
			c0.29,0,0.58-0.04,0.86-0.11c1.46-0.42,2.48-1.81,2.48-3.39v-2.25l-0.01-0.3v-20.93c0-2.14,1.74-3.89,3.89-3.89h1.85v27.52
			c0,4.15-2.81,7.76-6.83,8.79c-0.73,0.19-1.48,0.28-2.24,0.28c-0.76,0-1.52-0.1-2.26-0.28c-3.36-0.86-5.97-3.62-6.64-7.05
			l-0.04-0.2H79.93v2.32c0,5.3-3.04,8.92-7.57,9.01L72.29,230.65z"/>
		<path class="st0" d="M213.7,226.86c-0.75,0-1.5-0.09-2.22-0.27c-3.38-0.86-6.01-3.63-6.68-7.05l-0.04-0.2h-29.44
			c-1.72,0-4.09-0.18-5.63-1.01l-0.37-0.2v0.43c0,0.5-0.01,0.85-0.02,1.05c-0.2,3.37-3.02,5.39-5.64,5.39
			c-2.12,0-3.94-1.57-4.24-3.66l-0.1-0.66l0.76,0.04c0.1,0.01,0.2,0.01,0.31,0.01c0.22,0,0.44-0.02,0.64-0.05
			c1.5-0.22,2.55-1.19,2.55-2.37v-4l0.01-0.37v-5.75c0-6.16,5.01-11.17,11.16-11.17c0.27,0,0.54,0.02,0.8,0.03
			c5.6,0.42,10.03,4.92,10.35,10.48c0.12,1.98-0.29,3.95-1.19,5.71l-0.19,0.37h10.95v-12.76c0-2.14,1.74-3.89,3.89-3.89h1.84v16.65
			h9.16v4.03c0,1.58,1.01,2.97,2.46,3.38c0.28,0.08,0.57,0.11,0.88,0.11c0.3,0,0.61-0.04,0.89-0.11c1.45-0.42,2.46-1.81,2.46-3.38
			v-3.18l-0.01-0.3v-13.32c0-2.14,1.74-3.89,3.89-3.89h1.85v13.15l0.01,0.3v3.2h9.65l-0.01-7.1c0-4.36,3.06-8.24,7.28-9.23
			c0.72-0.19,1.47-0.29,2.23-0.29c4.76,0,9.42,4.11,9.42,8.29l0,4.94h-1.68c-1.06,0-2.06-0.42-2.82-1.17
			c-0.74-0.75-1.15-1.73-1.15-2.78c0-0.75-0.44-1.7-1.13-2.4c-0.72-0.73-1.69-1.15-2.66-1.15c-0.32,0-0.65,0.05-0.96,0.13
			c-1.65,0.47-2.8,2.04-2.8,3.81v2.65l0.01,4.29h13.64v4.03c0,1.58,1.01,2.97,2.46,3.38c0.29,0.08,0.59,0.11,0.88,0.11
			c0.29,0,0.58-0.04,0.86-0.11c1.46-0.42,2.48-1.81,2.48-3.39v-2.24l-0.01-0.3v-20.93c0-2.14,1.74-3.89,3.89-3.89h1.85v27.52
			c0,4.15-2.81,7.76-6.83,8.79c-0.72,0.18-1.48,0.28-2.24,0.28c-0.77,0-1.52-0.09-2.25-0.28c-3.37-0.86-5.98-3.62-6.65-7.04
			l-0.04-0.2h-23.55l-0.04,0.2c-0.67,3.42-3.29,6.19-6.66,7.05C215.22,226.76,214.46,226.86,213.7,226.86z M174.75,202.74
			c-2.99,0-5.43,2.44-5.43,5.43c0,2.84,2.22,5.22,5.05,5.42l0.78,0c2.83-0.2,5.03-2.58,5.03-5.42
			C180.18,205.18,177.74,202.74,174.75,202.74z"/>
	</g>
</g>
</svg>
