<?xml version="1.0" encoding="utf-8"?>
<!-- Generator: Adobe Illustrator 28.1.0, SVG Export Plug-In . SVG Version: 6.00 Build 0)  -->
<svg version="1.1" id="Layer_1" xmlns="http://www.w3.org/2000/svg" xmlns:xlink="http://www.w3.org/1999/xlink" x="0px" y="0px"
	 viewBox="0 0 300 300" style="enable-background:new 0 0 300 300;" xml:space="preserve">
<style type="text/css">
	.st0{fill:#234392;}
</style>
<g>
	<g>
		<g>
			<path class="st0" d="M151.31,33.82L151.31,33.82c-0.31-0.01-0.62-0.01-0.93-0.01c-0.02,0-0.04,0-0.06,0c0,0,0,0,0,0
				c-0.02,0-0.03,0-0.05,0c0,0,0,0,0,0c-0.09,0-0.18,0-0.27,0c-0.09,0-0.18,0-0.27,0c0,0,0,0,0,0c-0.02,0-0.03,0-0.05,0c0,0,0,0,0,0
				c-0.02,0-0.04,0-0.06,0c-0.31,0-0.62,0-0.93,0.01v0C82.7,34.51,29.42,88.22,29.42,154.38c0,15.03,2.75,29.41,7.77,42.67
				c15.91,42.04,54.65,72.87,101.1,77.34c0.03,0,0.65,0.08,1.02,0.13c3.8-7.75,6.1-16.37,6.54-25.47c0.06-1.07,0.08-2.14,0.08-3.23
				c0-10.57-2.51-20.56-6.97-29.4c-0.01-0.01-0.01-0.02-0.01-0.03c-2.3-4.31-5.2-8.59-8.46-12.76
				c-18.73-23.92-49.56-44.06-49.56-44.06c-1.78,7.23-2.48,14.24-2.24,20.96c0.61,17.15,7.3,32.42,17.64,44.68
				c0.86,1.02,5.71,6.81,11.81,14.1c-10.52-5.15-19.94-12.21-27.81-20.71c-0.21-0.23-0.43-0.46-0.64-0.69
				c-0.2-0.22-0.4-0.45-0.6-0.67c-8.53-9.58-15.15-20.91-19.22-33.37c-3.01-9.2-4.64-19.03-4.64-29.22v-0.28
				c0-0.36,0-0.72,0.01-1.07c0.57-51.84,42.77-93.68,94.74-93.68c0,0,0,0,0.01,0s0,0,0.01,0c51.97,0,94.17,41.85,94.74,93.68
				c0.01,0.36,0.01,0.72,0.01,1.07v0.28c0,10.19-1.63,20.02-4.64,29.22c-4.07,12.46-10.69,23.79-19.22,33.37
				c-0.2,0.22-0.4,0.45-0.6,0.67c-0.21,0.23-0.42,0.46-0.64,0.69c-7.88,8.51-17.29,15.56-27.81,20.71
				c6.1-7.29,10.95-13.08,11.81-14.1c10.34-12.27,17.03-27.54,17.64-44.68c0.24-6.72-0.46-13.73-2.24-20.96
				c0,0-30.83,20.14-49.56,44.06c-3.26,4.17-6.16,8.45-8.46,12.76c-0.01,0.01-0.01,0.02-0.01,0.03c-4.46,8.84-6.97,18.82-6.97,29.4
				c0,1.08,0.03,2.16,0.08,3.23c0.44,9.1,2.75,17.72,6.54,25.47c0.37-0.05,1-0.12,1.02-0.13c46.44-4.47,85.19-35.3,101.1-77.34
				c5.02-13.26,7.77-27.65,7.77-42.67C270.58,88.22,217.3,34.51,151.31,33.82z"/>
		</g>
		<path class="st0" d="M172.68,153.44c0-12.26-3.34-23.72-9.12-33.45c-0.1-0.17-0.2-0.35-0.3-0.52c-0.05-0.08-0.1-0.16-0.15-0.23
			c-3.56-5.81-7.99-10.99-13.11-15.34c0,0,0,0,0,0c0,0,0,0,0,0c-5.12,4.35-9.55,9.53-13.11,15.34c-0.05,0.08-0.1,0.15-0.15,0.23
			c-0.1,0.17-0.2,0.34-0.3,0.52c-5.78,9.74-9.12,21.19-9.12,33.45c0,5.84,0.76,11.49,2.18,16.86c3.42,13.01,10.7,24.37,20.5,32.69
			c0,0,0,0,0,0c0,0,0,0,0,0c9.8-8.32,17.08-19.68,20.5-32.69C171.92,164.93,172.68,159.28,172.68,153.44z"/>
	</g>
</g>
</svg>
