<?xml version="1.0" encoding="utf-8"?>
<!-- Generator: Adobe Illustrator 28.1.0, SVG Export Plug-In . SVG Version: 6.00 Build 0)  -->
<svg version="1.1" id="Layer_1" xmlns="http://www.w3.org/2000/svg" xmlns:xlink="http://www.w3.org/1999/xlink" x="0px" y="0px"
	 viewBox="0 0 300 300" style="enable-background:new 0 0 300 300;" xml:space="preserve">
<style type="text/css">
	.st0{fill:#4AC0B6;}
</style>
<g>
	<g>
		<g>
			<g>
				<path class="st0" d="M151.22,33.81L151.22,33.81c-0.29-0.01-0.58-0.01-0.87-0.01c-0.02,0-0.04,0-0.05,0c0,0,0,0,0,0
					c-0.01,0-0.03,0-0.04,0c0,0,0,0,0,0c-0.08,0-0.17,0-0.25,0c-0.08,0-0.17,0-0.25,0c0,0,0,0,0,0c-0.01,0-0.03,0-0.04,0
					c0,0,0,0,0,0c-0.02,0-0.04,0-0.05,0c-0.29,0-0.58,0-0.87,0.01v0C87.35,34.47,37.75,84.46,37.75,146.05
					c0,13.99,2.56,27.38,7.24,39.73c14.81,39.14,50.88,67.83,94.11,72c0.02,0,0.61,0.07,0.95,0.12c3.53-7.22,5.68-15.24,6.09-23.71
					c0.05-0.99,0.08-2,0.08-3c0-9.84-2.34-19.14-6.49-27.37c-0.01-0.01-0.01-0.02-0.01-0.02c-2.14-4.01-4.84-8-7.87-11.88
					C114.41,169.65,85.7,150.9,85.7,150.9c-1.66,6.73-2.31,13.25-2.09,19.51c0.57,15.96,6.8,30.18,16.42,41.6
					c0.8,0.95,5.32,6.34,11,13.12c-9.79-4.8-18.56-11.36-25.89-19.28c-0.2-0.21-0.4-0.43-0.59-0.64c-0.19-0.21-0.37-0.42-0.56-0.62
					c-7.94-8.92-14.1-19.46-17.89-31.07c-2.8-8.57-4.32-17.71-4.32-27.2v-0.26c0-0.33,0-0.67,0.01-1
					c0.53-48.26,39.82-87.21,88.2-87.21c0,0,0,0,0.01,0s0,0,0.01,0c48.38,0,87.67,38.96,88.2,87.21c0.01,0.33,0.01,0.67,0.01,1v0.26
					c0,9.49-1.51,18.63-4.32,27.2c-3.79,11.6-9.95,22.15-17.89,31.07c-0.18,0.21-0.37,0.42-0.56,0.62
					c-0.19,0.22-0.39,0.43-0.59,0.64c-7.33,7.92-16.1,14.49-25.89,19.28c5.68-6.79,10.2-12.18,11-13.12
					c9.62-11.42,15.86-25.63,16.42-41.6c0.22-6.26-0.43-12.78-2.09-19.51c0,0-28.7,18.75-46.13,41.02
					c-3.04,3.88-5.73,7.86-7.87,11.88c-0.01,0.01-0.01,0.02-0.01,0.02c-4.15,8.23-6.49,17.52-6.49,27.37c0,1.01,0.02,2.01,0.08,3
					c0.41,8.47,2.56,16.49,6.09,23.71c0.35-0.04,0.93-0.11,0.95-0.12c43.23-4.16,79.3-32.86,94.11-72
					c4.68-12.35,7.24-25.74,7.24-39.73C262.25,84.46,212.65,34.47,151.22,33.81z"/>
			</g>
			<path class="st0" d="M171.11,145.18c0-11.42-3.11-22.08-8.49-31.14c-0.09-0.16-0.19-0.32-0.28-0.48
				c-0.04-0.07-0.09-0.14-0.14-0.22c-3.31-5.41-7.44-10.23-12.2-14.28c0,0,0,0,0,0c0,0,0,0,0,0c-4.77,4.05-8.89,8.87-12.2,14.28
				c-0.04,0.07-0.09,0.14-0.14,0.22c-0.1,0.16-0.19,0.32-0.28,0.48c-5.38,9.06-8.49,19.73-8.49,31.14c0,5.43,0.71,10.7,2.03,15.7
				c3.19,12.11,9.96,22.69,19.09,30.43c0,0,0,0,0,0c0,0,0,0,0,0c9.12-7.74,15.9-18.32,19.09-30.43
				C170.41,155.87,171.11,150.61,171.11,145.18z"/>
		</g>
	</g>
</g>
<rect x="378.52" y="-1.03" transform="matrix(-1 -1.224647e-16 1.224647e-16 -1 1177.9933 177.4682)" class="st0" width="420.94" height="179.53"/>
<g>
	<g>
		<text transform="matrix(1 0 0 1 664.1322 132.6211)" style="fill:#FFFFFF; font-family:'Norsal-Thin'; font-size:11.7647px;">C65 M00 Y35 K00</text>
	</g>
	<g>
		<text transform="matrix(1 0 0 1 664.1322 150.1836)" style="fill:#FFFFFF; font-family:'Norsal-Thin'; font-size:11.7647px;">R73 G192 B182</text>
	</g>
	<g>
		<text transform="matrix(1 0 0 1 664.1322 106.6758)" style="fill:#FFFFFF; font-family:'Norsal-Light'; font-size:17.0899px;">#49c0b6</text>
	</g>
</g>
</svg>
