<?xml version="1.0" encoding="utf-8"?>
<!-- Generator: Adobe Illustrator 28.1.0, SVG Export Plug-In . SVG Version: 6.00 Build 0)  -->
<svg version="1.1" id="Layer_1" xmlns="http://www.w3.org/2000/svg" xmlns:xlink="http://www.w3.org/1999/xlink" x="0px" y="0px"
	 viewBox="0 0 300 300" style="enable-background:new 0 0 300 300;" xml:space="preserve">
<style type="text/css">
	.st0{fill:#FFFFFF;}
</style>
<g>
	<g>
		<g>
			<path class="st0" d="M151.32,33.82L151.32,33.82c-0.31-0.01-0.62-0.01-0.94-0.01c-0.02,0-0.04,0-0.06,0c0,0,0,0,0,0
				c-0.02,0-0.03,0-0.05,0c0,0,0,0,0,0c-0.09,0-0.18,0-0.27,0c-0.09,0-0.18,0-0.27,0c0,0,0,0,0,0c-0.02,0-0.03,0-0.05,0c0,0,0,0,0,0
				c-0.02,0-0.04,0-0.06,0c-0.31,0-0.63,0-0.94,0.01v0C82.14,34.52,28.42,88.67,28.42,155.38c0,15.15,2.77,29.65,7.84,43.03
				c16.04,42.39,55.11,73.47,101.93,77.98c0.03,0,0.66,0.08,1.03,0.13c3.83-7.82,6.15-16.5,6.6-25.68c0.06-1.08,0.08-2.16,0.08-3.25
				c0-10.66-2.53-20.73-7.03-29.64c-0.01-0.01-0.01-0.02-0.01-0.03c-2.32-4.34-5.24-8.66-8.53-12.86
				c-18.88-24.12-49.97-44.42-49.97-44.42c-1.8,7.29-2.5,14.36-2.26,21.13c0.61,17.29,7.36,32.69,17.79,45.05
				c0.87,1.03,5.76,6.86,11.91,14.22c-10.61-5.19-20.1-12.31-28.04-20.88c-0.22-0.23-0.43-0.46-0.64-0.7
				c-0.2-0.22-0.41-0.45-0.6-0.68c-8.6-9.66-15.27-21.08-19.38-33.65c-3.04-9.28-4.68-19.18-4.68-29.46v-0.28
				c0-0.36,0-0.72,0.01-1.08c0.58-52.27,43.12-94.46,95.53-94.46c0,0,0,0,0.01,0s0,0,0.01,0c52.4,0,94.95,42.19,95.53,94.46
				c0.01,0.36,0.01,0.72,0.01,1.08v0.28c0,10.28-1.64,20.18-4.68,29.46c-4.11,12.57-10.77,23.99-19.38,33.65
				c-0.2,0.23-0.4,0.45-0.61,0.68c-0.21,0.23-0.42,0.47-0.64,0.7c-7.94,8.58-17.44,15.69-28.04,20.88
				c6.15-7.35,11.04-13.19,11.91-14.22c10.42-12.37,17.17-27.76,17.79-45.05c0.24-6.78-0.46-13.84-2.26-21.13
				c0,0-31.09,20.31-49.97,44.42c-3.29,4.2-6.21,8.52-8.53,12.86c-0.01,0.01-0.01,0.02-0.01,0.03c-4.5,8.91-7.03,18.98-7.03,29.64
				c0,1.09,0.03,2.18,0.08,3.25c0.44,9.18,2.77,17.87,6.6,25.68c0.37-0.05,1.01-0.12,1.03-0.13c46.83-4.51,85.89-35.59,101.93-77.98
				c5.06-13.37,7.84-27.88,7.84-43.03C271.58,88.67,217.86,34.52,151.32,33.82z"/>
		</g>
		<path class="st0" d="M172.87,154.43c0-12.36-3.37-23.91-9.19-33.73c-0.1-0.17-0.2-0.35-0.31-0.52c-0.05-0.08-0.1-0.16-0.15-0.24
			c-3.59-5.86-8.05-11.08-13.22-15.47c0,0,0,0,0,0c0,0,0,0,0,0c-5.16,4.38-9.63,9.61-13.22,15.47c-0.05,0.08-0.1,0.16-0.15,0.24
			c-0.1,0.17-0.2,0.35-0.31,0.52c-5.83,9.82-9.19,21.37-9.19,33.73c0,5.89,0.77,11.59,2.19,17c3.45,13.12,10.79,24.57,20.67,32.96
			c0,0,0,0,0,0c0,0,0,0,0,0c9.88-8.39,17.22-19.85,20.67-32.96C172.1,166.02,172.87,160.32,172.87,154.43z"/>
	</g>
</g>
</svg>
