<?xml version="1.0" encoding="UTF-8"?>
<svg id="Layer_2" data-name="Layer 2" xmlns="http://www.w3.org/2000/svg" viewBox="0 0 167.41 202.07">
  <defs>
    <style>
      .cls-1 {
        fill: #fff;
        stroke-width: 0px;
      }
    </style>
  </defs>
  <g id="Layer_1-2" data-name="Layer 1">
    <g>
      <g>
        <path class="cls-1" d="M7.67,197.69c-1.1,0-2.14-.18-3.07-.55-.93-.35-1.74-.88-2.42-1.56-.67-.68-1.21-1.53-1.6-2.53-.38-1.01-.58-2.17-.58-3.46s.2-2.49.59-3.48c.39-.99.93-1.84,1.62-2.52.68-.68,1.49-1.19,2.42-1.54.92-.35,1.94-.53,3.03-.53s2.11.18,3.04.53c.93.35,1.74.87,2.43,1.54.69.67,1.23,1.52,1.63,2.52.39.99.59,2.16.59,3.48s-.2,2.48-.58,3.5c-.38,1-.92,1.85-1.61,2.53-.69.68-1.5,1.2-2.43,1.54-.94.35-1.97.53-3.08.53M7.69,184.31c-1.18,0-2.15.45-2.87,1.34-.71.88-1.07,2.2-1.07,3.95s.35,3.07,1.06,3.96c.71.9,1.67,1.35,2.86,1.35s2.18-.46,2.9-1.35c.7-.89,1.06-2.22,1.06-3.96s-.35-3.05-1.04-3.93c-.7-.9-1.67-1.36-2.88-1.36"/>
        <path class="cls-1" d="M22.46,197.62c-1.4,0-2.49-.32-3.23-.94-.73-.61-1.1-1.64-1.1-3.06v-11.94l.57-.1c.33-.06.69-.09,1.05-.09.68,0,1.21.12,1.58.35.33.21.49.68.49,1.42v2.15h3.4l.09.22c.03.09.07.18.1.29.08.25.12.52.12.83,0,.51-.1.87-.31,1.08-.21.21-.49.31-.85.31h-2.5v5.18c0,.53.18.92.53,1.15.32.21.75.32,1.32.32.26,0,.54-.02.82-.06.1-.01.17-.03.24-.05l.27-.07.14.22c.04.07.08.13.11.2.09.19.14.43.14.7,0,.54-.21,1.01-.62,1.35-.44.37-1.18.54-2.35.54"/>
        <path class="cls-1" d="M151.39,197.67c-1.4,0-2.49-.32-3.23-.94-.73-.61-1.1-1.64-1.1-3.06v-11.94l.57-.1c.34-.06.69-.09,1.05-.09.68,0,1.21.12,1.58.35.32.21.49.68.49,1.42v2.15h3.4l.09.22c.03.09.07.18.1.29.08.24.12.52.12.83,0,.51-.1.87-.31,1.08-.21.21-.49.31-.85.31h-2.51v5.18c0,.53.18.92.53,1.15.32.22.76.32,1.32.32.26,0,.54-.02.82-.07.1-.02.18-.03.26-.06l.26-.06.13.23c.04.06.07.13.1.2.09.19.14.42.14.7,0,.55-.21,1-.62,1.35-.44.37-1.18.54-2.35.54"/>
        <path class="cls-1" d="M38.44,197.67c-.35,0-.67-.02-.95-.07-.25-.04-.46-.13-.63-.25-.16-.13-.29-.29-.38-.5-.09-.23-.14-.53-.14-.91v-5.58c0-.77-.21-1.33-.62-1.65-.39-.31-.87-.47-1.44-.47-.36,0-.7.05-1.03.13-.32.09-.59.2-.8.33l-.08.05-.05.12v8.64l-.56.09c-.35.05-.72.07-1.08.07s-.66-.02-.95-.07c-.25-.04-.46-.13-.63-.25-.16-.12-.29-.29-.38-.5-.09-.22-.14-.53-.14-.9v-14.24l.59-.1c.35-.05.7-.08,1.05-.08s.67.02.95.07c.25.04.46.12.63.24.16.12.28.28.37.49.09.22.14.51.14.88v2.78l.37-.14c.2-.08.52-.17.96-.28.42-.1.9-.16,1.4-.16,1.58,0,2.83.4,3.7,1.18.87.77,1.31,1.95,1.31,3.51v7.41l-.56.09c-.35.05-.72.07-1.08.07"/>
        <path class="cls-1" d="M113.28,197.67c-.35,0-.67-.02-.95-.07-.25-.04-.46-.13-.63-.25-.16-.12-.29-.29-.38-.5-.09-.23-.14-.53-.14-.91v-5.58c0-.77-.21-1.33-.62-1.65-.39-.31-.87-.47-1.44-.47-.36,0-.7.05-1.03.14-.32.09-.59.2-.8.33l-.08.05-.05.12v8.65l-.56.09c-.36.05-.72.07-1.08.07s-.66-.02-.95-.07c-.25-.04-.46-.13-.63-.25-.16-.12-.29-.29-.38-.5-.09-.22-.14-.53-.14-.91v-14.24l.59-.1c.35-.05.7-.08,1.05-.08s.67.02.95.07c.25.04.46.12.63.24.16.12.28.28.37.49.09.22.14.51.14.88v2.78l.36-.14c.2-.08.52-.17.96-.28.42-.1.9-.16,1.4-.16,1.58,0,2.83.4,3.7,1.18.87.77,1.31,1.95,1.31,3.51v7.41l-.56.09c-.35.05-.72.07-1.08.07"/>
        <path class="cls-1" d="M48.21,197.69c-.85,0-1.64-.08-2.33-.24-.68-.15-1.27-.39-1.75-.71-.46-.29-.83-.68-1.09-1.16-.26-.47-.38-1.03-.38-1.66,0-1.07.31-1.86.94-2.43.64-.57,1.66-.93,3.03-1.07l3.53-.37v-.24c0-.72-.24-1.17-.79-1.43-.48-.22-1.12-.33-1.97-.33-.64,0-1.29.07-1.92.2-.47.1-.91.23-1.31.37l-.25.09-.16-.22c-.06-.08-.12-.18-.17-.29-.13-.28-.2-.56-.2-.84,0-.37.09-.66.26-.87.18-.22.47-.41.86-.57.44-.17.99-.3,1.64-.38.66-.08,1.28-.12,1.84-.12.89,0,1.7.09,2.41.27.71.17,1.32.43,1.82.79.49.34.87.79,1.13,1.31.27.53.4,1.17.4,1.9v5.54c0,.36-.1.66-.3.88-.21.25-.48.46-.8.65-1.04.62-2.54.93-4.46.93M48.24,192.47c-.51.04-.93.14-1.27.33-.39.21-.59.55-.59.97s.16.75.49,1c.31.25.79.37,1.49.37.31,0,.64-.03.98-.09.14-.02.38-.09.58-.16l.12-.04v-2.55l-1.8.16Z"/>
        <path class="cls-1" d="M122.88,197.69c-.86,0-1.64-.08-2.34-.24-.68-.15-1.27-.39-1.75-.71-.46-.29-.83-.68-1.09-1.16-.26-.47-.38-1.03-.38-1.66,0-1.07.31-1.86.94-2.43.64-.57,1.66-.93,3.03-1.07l3.53-.37v-.24c0-.72-.24-1.17-.79-1.43-.48-.22-1.12-.33-1.97-.33-.64,0-1.29.07-1.92.2-.47.1-.91.23-1.31.37l-.25.09-.16-.21c-.06-.08-.12-.18-.17-.28-.13-.28-.2-.56-.2-.84,0-.37.09-.66.26-.87.18-.22.47-.41.87-.57.44-.17.99-.3,1.64-.38.66-.08,1.28-.12,1.84-.12.89,0,1.7.09,2.41.27.71.17,1.32.43,1.82.79.49.34.87.79,1.13,1.31.27.53.4,1.17.4,1.9v5.54c0,.36-.1.66-.3.88-.21.24-.48.46-.8.65-1.04.62-2.54.93-4.46.93M122.91,192.47c-.51.04-.93.14-1.27.33-.38.21-.59.55-.59.97s.16.75.49,1c.31.25.79.37,1.49.37.31,0,.64-.03.98-.09.14-.02.38-.1.58-.16l.12-.04v-2.55l-1.8.16Z"/>
        <path class="cls-1" d="M142.02,183.61c-1.06,0-1.93-.86-1.93-1.93s.86-1.93,1.93-1.93,1.93.86,1.93,1.93-.86,1.93-1.93,1.93"/>
        <path class="cls-1" d="M142.4,197.67c-.35,0-.67-.02-.95-.07-.25-.04-.46-.13-.63-.25-.16-.12-.29-.29-.38-.51-.1-.23-.14-.52-.14-.91v-10.32l.59-.1c.35-.06.71-.09,1.05-.09s.67.02.95.07c.25.04.46.13.63.25.16.12.28.29.38.5.09.23.14.54.14.92v10.32l-.59.1c-.35.06-.71.09-1.05.09"/>
        <path class="cls-1" d="M58.36,183.61c-1.06,0-1.93-.86-1.93-1.93s.86-1.93,1.93-1.93,1.93.86,1.93,1.93-.86,1.93-1.93,1.93"/>
        <path class="cls-1" d="M58.73,197.67c-.35,0-.67-.02-.95-.07-.25-.04-.46-.13-.63-.25-.16-.12-.29-.29-.38-.51-.09-.22-.14-.53-.14-.92v-10.32l.59-.1c.35-.06.7-.09,1.05-.09s.67.02.95.07c.25.04.46.13.63.25.16.12.28.28.38.5.1.23.14.53.14.92v10.32l-.59.1c-.35.06-.71.09-1.05.09"/>
        <path class="cls-1" d="M80.3,197.67c-.35,0-.67-.02-.95-.07-.25-.04-.46-.13-.63-.25-.16-.12-.29-.29-.38-.51-.09-.22-.14-.53-.14-.91v-6c0-.59-.18-1.02-.53-1.3-.33-.26-.78-.4-1.32-.4-.27,0-.56.06-.86.18-.3.12-.52.25-.68.39l-.08.07-.02.14.03.34v8.16s-.58.09-.58.09c-.35.05-.71.07-1.06.07s-.67-.02-.95-.07c-.25-.04-.46-.13-.63-.25-.16-.12-.29-.29-.38-.5-.09-.23-.14-.53-.14-.91v-6c0-.6-.19-1.03-.57-1.31-.36-.26-.79-.39-1.28-.39-.34,0-.64.05-.88.16-.23.1-.42.19-.58.28l-.09.05-.05.13v8.67l-.56.09c-.35.05-.72.07-1.08.07s-.67-.02-.95-.07c-.25-.04-.46-.13-.63-.25-.16-.12-.29-.29-.38-.5-.1-.23-.14-.53-.14-.92v-7.59c0-.39.08-.7.24-.92.17-.24.42-.48.73-.69.55-.38,1.23-.7,2.04-.94.82-.24,1.69-.37,2.57-.37.65,0,1.31.09,1.95.28.63.18,1.17.46,1.63.82l.15.12.16-.11c.48-.32,1.03-.59,1.63-.8.6-.21,1.34-.31,2.19-.31.6,0,1.21.08,1.8.24.57.16,1.09.41,1.54.75.44.33.8.78,1.06,1.33.27.55.4,1.25.4,2.06v7.71l-.56.09c-.35.05-.72.07-1.08.07"/>
        <path class="cls-1" d="M95.53,197.67c-1.57,0-2.98-.34-4.19-1.02-1.22-.68-2.19-1.63-2.88-2.83-.69-1.2-1.04-2.6-1.04-4.16s.34-3.01,1.02-4.23c.68-1.23,1.66-2.19,2.89-2.88,1.22-.68,2.66-1.03,4.25-1.03.91,0,1.76.11,2.52.32.79.22,1.44.53,1.94.91.6.46.9,1.01.9,1.63,0,.39-.13.78-.39,1.19-.25.38-.56.68-.92.88l-.44.24-.33-.38c-.31-.36-.79-.67-1.41-.92-.64-.26-1.3-.39-1.95-.39-.85,0-1.6.19-2.24.58-.64.38-1.14.92-1.49,1.6-.36.69-.54,1.52-.54,2.47s.19,1.71.56,2.38c.37.66.89,1.18,1.55,1.55.67.37,1.48.56,2.41.56.6,0,1.21-.08,1.8-.24.26-.07.5-.15.71-.23.19-.07.38-.11.57-.11.48,0,.91.22,1.19.6l1.26,1.71-.5.36c-.6.44-1.39.8-2.35,1.06-.94.25-1.92.38-2.92.38"/>
        <path class="cls-1" d="M132.91,197.68c-.72,0-1.31-.19-1.75-.55-.45-.37-.67-.93-.67-1.66v-5.46c0-.57.08-1.13.24-1.68.16-.56.42-1.06.76-1.48.35-.43.81-.78,1.35-1.04.55-.26,1.22-.4,1.98-.4.47,0,.89.07,1.24.2.35.13.63.31.85.52.22.22.38.47.47.74.1.27.15.53.15.8v1.54l-.42-.08c-.37-.07-.68-.13-.92-.19-.25-.06-.52-.09-.82-.09-.39,0-.68.11-.87.35-.21.25-.31.67-.31,1.29v7.19h-1.29Z"/>
        <path class="cls-1" d="M161.28,202.07c-1.48,0-2.65-.2-3.48-.6-.79-.37-1.15-.93-1.15-1.76,0-.34.07-.64.21-.89.05-.09.1-.17.15-.24l.17-.23.26.12c.48.23,1.01.42,1.58.58.5.13,1.01.2,1.5.2.06,0,.13,0,.19,0,.82-.03,1.5-.19,2.01-.48.64-.36.95-.91.95-1.7v-.76l-.23.09c-.5.2-1.31.45-2.29.45-.71,0-1.41-.11-2.06-.33-.63-.21-1.2-.55-1.68-1-.48-.45-.87-1.04-1.17-1.76-.23-.56-.38-1.24-.42-2v-6.35s1.29,0,1.29,0c1.34,0,2.43,1.1,2.43,2.45v3.92c.08.74.3,1.3.66,1.68.46.48,1.06.72,1.76.72.65,0,1.2-.14,1.63-.42l.08-.05v-8.3h1.31c1.35,0,2.44,1.1,2.44,2.45v9.3c0,.84-.16,1.57-.47,2.18-.31.6-.75,1.12-1.29,1.52-.54.4-1.2.71-1.94.9-.76.2-1.58.3-2.43.3"/>
        <path class="cls-1" d="M60.83,154.16c-1.08,0-1.96-.88-1.96-1.96s.88-1.96,1.96-1.96,1.96.88,1.96,1.96-.88,1.96-1.96,1.96"/>
        <path class="cls-1" d="M120.29,154.16c-1.08,0-1.96-.88-1.96-1.96s.88-1.96,1.96-1.96,1.96.88,1.96,1.96-.88,1.96-1.96,1.96"/>
        <path class="cls-1" d="M125.59,154.16c-1.08,0-1.96-.88-1.96-1.96s.88-1.96,1.96-1.96,1.96.88,1.96,1.96-.88,1.96-1.96,1.96"/>
        <path class="cls-1" d="M122.94,148.96c-1.08,0-1.96-.88-1.96-1.96s.88-1.96,1.96-1.96,1.96.88,1.96,1.96-.88,1.96-1.96,1.96"/>
        <path class="cls-1" d="M166.18,170.95c-1.42,0-2.58-1.16-2.58-2.58v-16.72h1.23c1.42,0,2.58,1.16,2.58,2.58v16.72h-1.23Z"/>
        <path class="cls-1" d="M7.73,170.95C3.47,170.95,0,167.48,0,163.22c0-3.92,3.18-7.1,7.1-7.1.06,0,.11,0,.17,0,3.83.07,6.93,3.3,6.93,7.21v3.8h7.39v-8.48c0-1.42,1.16-2.58,2.58-2.58h1.23v14.87H7.73ZM7.1,159.93c-1.81,0-3.28,1.48-3.28,3.29,0,2.16,1.76,3.92,3.92,3.92h2.66v-3.92c0-1.81-1.47-3.29-3.29-3.29"/>
        <path class="cls-1" d="M82.54,170.95c-1.42,0-2.58-1.16-2.58-2.58v-16.72h1.23c1.42,0,2.58,1.16,2.58,2.58v16.72h-1.23Z"/>
        <path class="cls-1" d="M4.69,154.16c-1.08,0-1.96-.88-1.96-1.96s.88-1.96,1.96-1.96,1.96.88,1.96,1.96-.88,1.96-1.96,1.96"/>
        <path class="cls-1" d="M9.99,154.16c-1.08,0-1.96-.88-1.96-1.96s.88-1.96,1.96-1.96,1.96.88,1.96,1.96-.88,1.96-1.96,1.96"/>
        <path class="cls-1" d="M17.17,176.81c-1.08,0-1.96-.88-1.96-1.96s.88-1.96,1.96-1.96,1.96.88,1.96,1.96-.88,1.96-1.96,1.96"/>
        <path class="cls-1" d="M22.47,176.81c-1.08,0-1.96-.88-1.96-1.96s.88-1.96,1.96-1.96,1.96.88,1.96,1.96-.88,1.96-1.96,1.96"/>
        <path class="cls-1" d="M41.3,176.81c-1.08,0-1.96-.88-1.96-1.96s.88-1.96,1.96-1.96,1.96.88,1.96,1.96-.88,1.96-1.96,1.96"/>
        <path class="cls-1" d="M46.6,176.81c-1.08,0-1.96-.88-1.96-1.96s.88-1.96,1.96-1.96,1.96.88,1.96,1.96-.88,1.96-1.96,1.96"/>
        <path class="cls-1" d="M107.81,176.81c-1.08,0-1.96-.88-1.96-1.96s.88-1.96,1.96-1.96,1.96.88,1.96,1.96-.88,1.96-1.96,1.96"/>
        <path class="cls-1" d="M113.11,176.81c-1.08,0-1.96-.88-1.96-1.96s.88-1.96,1.96-1.96,1.96.88,1.96,1.96-.88,1.96-1.96,1.96"/>
        <path class="cls-1" d="M32.1,178.46c-1.32,0-3.52-1.04-3.65-3.82,0-.18-.02-.73-.02-.73,0,0,.96.95,2.36.96.41,0,.82-.07,1.11-.19.4-.17,1.46-.62,1.46-3.44v-.46s0-.2,0-.2v-4.71s0-.09,0-.09v-4.12c0-1.42,1.16-2.58,2.58-2.58h1.22v3.76l.02.19v4.1h7.66v-8.48c0-1.42,1.16-2.58,2.58-2.58h1.23v11.06h15.21v-3.53c0-1.98-1.49-3.64-3.38-3.77-.08,0-.17,0-.25,0-1.55,0-2.94.99-3.44,2.46-.31.92-1.17,1.53-2.12,1.53h-1.81v-.36c0-4.06,3.31-7.37,7.37-7.37.12,0,.25,0,.37,0,3.92.19,7,3.52,7,7.56v3.47h1.62v2.39c0,.64-.43,1.2-1.05,1.37l-.23.06.13.2c.29.45.73.77,1.23.91.19.05.39.08.59.08s.38-.02.57-.07c.97-.28,1.65-1.2,1.65-2.25v-1.69s0-13.9,0-13.9c0-1.42,1.16-2.58,2.58-2.58h1.23v18.28c0,2.76-1.87,5.16-4.54,5.84-.48.12-.98.19-1.49.19s-1.01-.06-1.5-.19c-2.23-.57-3.96-2.41-4.41-4.68l-.03-.14h-26.77v1.54c0,3.52-2.02,5.93-5.03,5.98h-.04Z"/>
        <path class="cls-1" d="M126.01,175.94c-.5,0-1-.06-1.47-.18-2.25-.57-3.99-2.41-4.44-4.68l-.03-.14h-19.55c-1.14,0-2.72-.12-3.74-.67l-.25-.13v.28c0,.33,0,.56-.02.7-.13,2.24-2.01,3.58-3.74,3.58-1.4,0-2.62-1.05-2.82-2.43l-.07-.44.5.03c.07,0,.13,0,.2,0,.15,0,.29-.01.43-.03,1-.15,1.69-.79,1.69-1.57v-2.9s0-3.82,0-3.82c0-4.09,3.32-7.42,7.41-7.42.18,0,.36.01.53.02,3.72.28,6.66,3.27,6.87,6.96.08,1.31-.19,2.62-.79,3.79l-.12.24h7.27v-8.48c0-1.42,1.16-2.58,2.58-2.58h1.22v11.06h6.08v2.68c0,1.05.67,1.97,1.64,2.25.18.05.38.07.58.07s.41-.02.59-.07c.96-.28,1.63-1.2,1.63-2.25v-2.31s0-8.84,0-8.84c0-1.42,1.16-2.58,2.58-2.58h1.23v8.93s0,2.12,0,2.12h6.41v-4.72c0-2.9,2.03-5.47,4.83-6.13.48-.13.98-.19,1.48-.19,3.16,0,6.26,2.73,6.26,5.51v3.28s-1.11,0-1.11,0c-.71,0-1.37-.28-1.87-.78-.49-.5-.77-1.15-.76-1.84,0-.5-.29-1.13-.75-1.59-.48-.49-1.12-.76-1.77-.76-.22,0-.43.03-.64.09-1.1.31-1.86,1.35-1.86,2.53v4.61h9.06v2.68c0,1.05.67,1.97,1.64,2.25.19.05.39.08.58.08s.39-.02.57-.07c.97-.28,1.64-1.2,1.64-2.25v-1.69s0-13.9,0-13.9c0-1.42,1.16-2.58,2.58-2.58h1.23v18.28c0,2.76-1.87,5.15-4.54,5.84-.48.12-.98.19-1.49.19s-1.01-.06-1.5-.19c-2.23-.57-3.97-2.41-4.42-4.68l-.03-.14h-15.64l-.03.14c-.45,2.27-2.18,4.11-4.42,4.68-.48.12-.98.19-1.49.19M100.14,159.93c-1.99,0-3.61,1.62-3.61,3.61s1.47,3.47,3.35,3.6h.52c1.88-.13,3.34-1.71,3.34-3.6,0-1.99-1.62-3.61-3.61-3.61"/>
      </g>
      <path class="cls-1" d="M89.62,119.85c4.91-.35,9.56-1.3,14.03-3.07,4.69-1.86,8.75-4.75,12.84-7.62,6.87-4.83,12.4-10.83,16.37-18.21,4-7.43,6.15-15.39,6.08-23.84-.15-18.51-7.94-33.12-23.16-43.53-9.89-6.77-21.04-9.49-33.02-8.33-16.35,1.59-29.16,9.29-38.33,22.84-7.23,10.69-9.85,22.57-8.17,35.38,1.63,12.49,7.19,22.99,16.53,31.32,7.78,6.94,16.5,12.38,26.99,14.32,1.79.33,3.6.52,5.62.8-.2,1.45-.25,2.93-.63,4.31-.72,2.57-1.63,5.08-2.46,7.61-.28.85-.82,1.2-1.73,1.01-4.36-.89-8.79-1.48-13.05-2.7-7.2-2.06-13.77-5.53-19.8-10.01-5.73-4.26-10.66-9.3-14.8-15.12-3.85-5.41-6.78-11.3-8.88-17.58-1.84-5.52-2.8-11.23-3.2-17.03-.45-6.55.2-13.02,1.74-19.37,3.37-13.93,10.52-25.58,21.36-34.98,6.27-5.43,13.33-9.52,21.12-12.29C73.03.93,81.28-.26,89.76.05c11.99.43,23.05,3.81,33.18,10.23,12.2,7.73,21.01,18.34,26.35,31.73,4.43,11.12,5.69,22.66,3.9,34.52-2.1,13.91-8.04,25.95-17.7,36.11-7.46,7.85-16.38,13.51-26.66,17-4.75,1.61-9.6,2.66-14.58,3.2-.91.1-1.46-.11-1.86-1.03-1.43-3.24-2.43-6.59-2.89-10.1-.08-.59.07-1.21.11-1.87Z"/>
      <path class="cls-1" d="M49.51,66.6c2.13,1.51,4.15,2.87,6.09,4.33,6.73,5.07,13.15,10.48,18.74,16.82,3.75,4.25,7.17,8.73,9.17,14.13,1.76,4.74,2.49,9.64,2.19,14.69-.01.25-.09.51-.14.74-24.39.04-42.83-26.06-36.06-50.71Z"/>
      <path class="cls-1" d="M126.03,66.6c.39,3.09.88,5.93,1.08,8.8,1.2,17.36-10.75,33.71-24.94,39.56-3.75,1.55-7.7,2.15-11.7,2.51-.89.08-1.01-.44-.96-1.05.22-3.15.22-6.34.78-9.43,1.45-8.06,6.12-14.39,11.52-20.25,6.76-7.34,14.48-13.54,22.61-19.26.39-.27.84-.46,1.62-.88Z"/>
      <path class="cls-1" d="M87.84,35.77c1.81,2.11,3.72,4.04,5.28,6.22,4.09,5.71,6.09,12.18,6.04,19.17-.08,9.67-3.61,17.94-10.7,24.63-.62.58-1.01.6-1.65,0-5.27-4.93-8.61-10.89-10.05-17.98-1.49-7.35-.54-14.36,2.59-21.1,1.93-4.15,4.64-7.75,8.49-10.94Z"/>
    </g>
  </g>
</svg>